Unna-Regular Italic.ufo
<glyph name="quotesingle" format="1">
  <advance width="132"/>
  <unicode hex="0027"/>
  <outline>
    <contour>
      <point x="86" y="573"/>
      <point x="85" y="546"/>
      <point x="85" y="519" type="curve" smooth="yes"/>
      <point x="84" y="496"/>
      <point x="84" y="473"/>
      <point x="83" y="449" type="curve" smooth="yes"/>
      <point x="83" y="442"/>
      <point x="82" y="434"/>
      <point x="82" y="426" type="curve"/>
      <point x="81" y="417"/>
      <point x="85" y="409"/>
      <point x="94" y="409" type="curve" smooth="yes"/>
      <point x="102" y="409"/>
      <point x="109" y="413"/>
      <point x="111" y="423" type="curve" smooth="yes"/>
      <point x="113" y="433"/>
      <point x="122" y="471"/>
      <point x="133" y="516" type="curve" smooth="yes"/>
      <point x="144" y="557"/>
      <point x="154" y="599"/>
      <point x="154" y="607" type="curve" smooth="yes"/>
      <point x="154" y="625"/>
      <point x="147" y="640"/>
      <point x="127" y="640" type="curve" smooth="yes"/>
      <point x="106" y="640"/>
      <point x="87" y="625"/>
      <point x="87" y="600" type="curve"/>
    </contour>
  </outline>
</glyph>
<glyph name="plus" format="1">
  <advance width="447"/>
  <unicode hex="002B"/>
  <outline>
    <contour>
      <point x="237" y="488" type="line"/>
      <point x="211" y="303" type="line"/>
      <point x="33" y="303" type="line"/>
      <point x="27" y="259" type="line"/>
      <point x="205" y="259" type="line"/>
      <point x="179" y="73" type="line"/>
      <point x="230" y="73" type="line"/>
      <point x="256" y="259" type="line"/>
      <point x="434" y="259" type="line"/>
      <point x="440" y="303" type="line"/>
      <point x="262" y="303" type="line"/>
      <point x="288" y="488" type="line"/>
    </contour>
  </outline>
</glyph>
<glyph name="period" format="1">
  <advance width="240"/>
  <unicode hex="002E"/>
  <outline>
    <contour>
      <point x="34" y="9"/>
      <point x="56" y="-10"/>
      <point x="89" y="-10" type="curve" smooth="yes"/>
      <point x="127" y="-10"/>
      <point x="159" y="15"/>
      <point x="159" y="55" type="curve" smooth="yes"/>
      <point x="159" y="86"/>
      <point x="137" y="105"/>
      <point x="105" y="105" type="curve" smooth="yes"/>
      <point x="65" y="105"/>
      <point x="34" y="78"/>
      <point x="34" y="39" type="curve" smooth="yes"/>
    </contour>
  </outline>
</glyph>
<glyph name="five" format="1">
  <advance width="492"/>
  <unicode hex="0035"/>
  <outline>
    <contour>
      <point x="473" y="599"/>
      <point x="454" y="597"/>
      <point x="403" y="597" type="curve" smooth="yes"/>
      <point x="139" y="597" type="line"/>
      <point x="81" y="288" type="line"/>
      <point x="108" y="288" type="line"/>
      <point x="136" y="318"/>
      <point x="188" y="341"/>
      <point x="241" y="341" type="curve" smooth="yes"/>
      <point x="316" y="341"/>
      <point x="361" y="294"/>
      <point x="361" y="220" type="curve" smooth="yes"/>
      <point x="361" y="153"/>
      <point x="323" y="17"/>
      <point x="208" y="17" type="curve" smooth="yes"/>
      <point x="158" y="17"/>
      <point x="105" y="35"/>
      <point x="105" y="82" type="curve" smooth="yes"/>
      <point x="105" y="107"/>
      <point x="124" y="115"/>
      <point x="124" y="141" type="curve" smooth="yes"/>
      <point x="124" y="164"/>
      <point x="105" y="177"/>
      <point x="84" y="177" type="curve" smooth="yes"/>
      <point x="46" y="177"/>
      <point x="25" y="153"/>
      <point x="25" y="112" type="curve" smooth="yes"/>
      <point x="25" y="29"/>
      <point x="117" y="-10"/>
      <point x="203" y="-10" type="curve" smooth="yes"/>
      <point x="372" y="-10"/>
      <point x="452" y="119"/>
      <point x="452" y="224" type="curve" smooth="yes"/>
      <point x="452" y="329"/>
      <point x="381" y="382"/>
      <point x="275" y="382" type="curve" smooth="yes"/>
      <point x="216" y="382"/>
      <point x="137" y="352"/>
      <point x="101" y="313" type="curve"/>
      <point x="119" y="317" type="line"/>
      <point x="171" y="575" type="line"/>
      <point x="135" y="531" type="line"/>
      <point x="463" y="531" type="line"/>
      <point x="468" y="553"/>
      <point x="477" y="584"/>
      <point x="487" y="600" type="curve"/>
    </contour>
  </outline>
</glyph>
<glyph name="greater" format="1">
  <advance width="446"/>
  <unicode hex="003E"/>
  <outline>
    <contour>
      <point x="77" y="396" type="line"/>
      <point x="303" y="242" type="line"/>
      <point x="342" y="220" type="line"/>
      <point x="297" y="200" type="line"/>
      <point x="28" y="45" type="line"/>
      <point x="21" y="-5" type="line"/>
      <point x="393" y="210" type="line"/>
      <point x="396" y="233" type="line"/>
      <point x="84" y="446" type="line"/>
    </contour>
  </outline>
</glyph>
<glyph name="at" format="1">
  <advance width="718"/>
  <unicode hex="0040"/>
  <outline>
    <contour>
      <point x="222" y="596"/>
      <point x="16" y="364"/>
      <point x="16" y="132" type="curve" smooth="yes"/>
      <point x="16" y="-39"/>
      <point x="129" y="-145"/>
      <point x="314" y="-145" type="curve" smooth="yes"/>
      <point x="439" y="-145"/>
      <point x="538" y="-109"/>
      <point x="640" y="-13" type="curve"/>
      <point x="625" y="10" type="line"/>
      <point x="529" y="-79"/>
      <point x="441" y="-116"/>
      <point x="327" y="-116" type="curve" smooth="yes"/>
      <point x="166" y="-116"/>
      <point x="73" y="-16"/>
      <point x="73" y="131" type="curve" smooth="yes"/>
      <point x="73" y="374"/>
      <point x="262" y="567"/>
      <point x="458" y="567" type="curve" smooth="yes"/>
      <point x="587" y="567"/>
      <point x="675" y="464"/>
      <point x="675" y="337" type="curve" smooth="yes"/>
      <point x="675" y="164"/>
      <point x="555" y="75"/>
      <point x="509" y="75" type="curve" smooth="yes"/>
      <point x="501" y="75"/>
      <point x="498" y="82"/>
      <point x="498" y="92" type="curve" smooth="yes"/>
      <point x="498" y="128"/>
      <point x="518" y="230"/>
      <point x="540" y="330" type="curve" smooth="yes"/>
      <point x="563" y="428" type="line"/>
      <point x="481" y="411" type="line"/>
      <point x="476" y="391" type="line"/>
      <point x="463" y="418"/>
      <point x="448" y="430"/>
      <point x="419" y="430" type="curve" smooth="yes"/>
      <point x="277" y="430"/>
      <point x="152" y="252"/>
      <point x="152" y="112" type="curve" smooth="yes"/>
      <point x="152" y="36"/>
      <point x="185" y="-10"/>
      <point x="244" y="-10" type="curve" smooth="yes"/>
      <point x="307" y="-10"/>
      <point x="362" y="41"/>
      <point x="439" y="187" type="curve"/>
      <point x="420" y="115"/>
      <point x="411" y="49"/>
      <point x="411" y="16" type="curve" smooth="yes"/>
      <point x="411" y="-2"/>
      <point x="421" y="-10"/>
      <point x="435" y="-10" type="curve" smooth="yes"/>
      <point x="518" y="-10"/>
      <point x="708" y="121"/>
      <point x="708" y="343" type="curve" smooth="yes"/>
      <point x="708" y="486"/>
      <point x="610" y="596"/>
      <point x="462" y="596" type="curve" smooth="yes"/>
    </contour>
    <contour>
      <point x="446" y="400"/>
      <point x="464" y="376"/>
      <point x="464" y="348" type="curve" smooth="yes"/>
      <point x="464" y="230"/>
      <point x="330" y="45"/>
      <point x="291" y="45" type="curve" smooth="yes"/>
      <point x="258" y="45"/>
      <point x="241" y="71"/>
      <point x="241" y="123" type="curve" smooth="yes"/>
      <point x="241" y="160"/>
      <point x="249" y="199"/>
      <point x="264" y="241" type="curve" smooth="yes"/>
      <point x="299" y="336"/>
      <point x="356" y="400"/>
      <point x="421" y="400" type="curve" smooth="yes"/>
    </contour>
  </outline>
</glyph>
<glyph name="K" format="1">
  <advance width="598"/>
  <unicode hex="004B"/>
  <outline>
    <contour>
      <point x="102" y="597" type="line"/>
      <point x="98" y="567" type="line"/>
      <point x="137" y="569" type="line" smooth="yes"/>
      <point x="148" y="569"/>
      <point x="153" y="561"/>
      <point x="151" y="548" type="curve" smooth="yes"/>
      <point x="81" y="49" type="line" smooth="yes"/>
      <point x="79" y="34"/>
      <point x="72" y="27"/>
      <point x="61" y="27" type="curve" smooth="yes"/>
      <point x="22" y="29" type="line"/>
      <point x="18" y="0" type="line"/>
      <point x="233" y="0" type="line"/>
      <point x="237" y="29" type="line"/>
      <point x="188" y="27" type="line"/>
      <point x="177" y="27"/>
      <point x="171" y="34"/>
      <point x="173" y="49" type="curve"/>
      <point x="243" y="547" type="line"/>
      <point x="245" y="562"/>
      <point x="253" y="569"/>
      <point x="264" y="569" type="curve" smooth="yes"/>
      <point x="313" y="567" type="line"/>
      <point x="317" y="597" type="line"/>
    </contour>
    <contour>
      <point x="256" y="308" type="line"/>
      <point x="401" y="52" type="line" smooth="yes"/>
      <point x="407" y="41"/>
      <point x="405" y="27"/>
      <point x="388" y="27" type="curve" smooth="yes"/>
      <point x="334" y="30" type="line"/>
      <point x="330" y="0" type="line"/>
      <point x="562" y="0" type="line"/>
      <point x="566" y="30" type="line"/>
      <point x="555" y="29"/>
      <point x="541" y="27"/>
      <point x="532" y="27" type="curve" smooth="yes"/>
      <point x="524" y="27"/>
      <point x="517" y="32"/>
      <point x="512" y="41" type="curve" smooth="yes"/>
      <point x="321" y="377" type="line"/>
    </contour>
    <contour>
      <point x="421" y="597" type="line"/>
      <point x="417" y="567" type="line"/>
      <point x="459" y="569" type="line" smooth="yes"/>
      <point x="464" y="569"/>
      <point x="466" y="567"/>
      <point x="466" y="562" type="curve" smooth="yes"/>
      <point x="466" y="558"/>
      <point x="463" y="553"/>
      <point x="459" y="548" type="curve"/>
      <point x="198" y="273" type="line"/>
      <point x="191" y="226" type="line"/>
      <point x="499" y="540" type="line"/>
      <point x="521" y="562"/>
      <point x="537" y="570"/>
      <point x="553" y="569" type="curve" smooth="yes"/>
      <point x="592" y="567" type="line"/>
      <point x="596" y="597" type="line"/>
    </contour>
    <contour>
      <point x="359" y="598" type="move" name="top"/>
    </contour>
    <contour>
      <point x="270" y="0" type="move" name="bottom"/>
    </contour>
  </outline>
</glyph>
<glyph name="L" format="1">
  <advance width="498"/>
  <unicode hex="004C"/>
  <outline>
    <contour>
      <point x="102" y="597" type="line"/>
      <point x="98" y="567" type="line"/>
      <point x="137" y="569" type="line" smooth="yes"/>
      <point x="147" y="569"/>
      <point x="153" y="560"/>
      <point x="151" y="548" type="curve" smooth="yes"/>
      <point x="81" y="49" type="line" smooth="yes"/>
      <point x="79" y="37"/>
      <point x="74" y="27"/>
      <point x="65" y="27" type="curve" smooth="yes"/>
      <point x="22" y="30" type="line"/>
      <point x="18" y="0" type="line"/>
      <point x="326" y="0" type="line" smooth="yes"/>
      <point x="394" y="0"/>
      <point x="434" y="-1"/>
      <point x="447" y="-3" type="curve"/>
      <point x="471" y="171" type="line"/>
      <point x="443" y="171" type="line"/>
      <point x="430" y="78"/>
      <point x="377" y="28"/>
      <point x="289" y="28" type="curve" smooth="yes"/>
      <point x="180" y="28" type="line" smooth="yes"/>
      <point x="174" y="28"/>
      <point x="171" y="32"/>
      <point x="172" y="41" type="curve" smooth="yes"/>
      <point x="243" y="548" type="line" smooth="yes"/>
      <point x="245" y="561"/>
      <point x="253" y="569"/>
      <point x="264" y="569" type="curve" smooth="yes"/>
      <point x="313" y="567" type="line"/>
      <point x="317" y="597" type="line"/>
    </contour>
    <contour>
      <point x="225" y="598" type="move" name="top"/>
    </contour>
    <contour>
      <point x="217" y="0" type="move" name="bottom"/>
    </contour>
    <contour>
      <point x="455" y="598" type="move" name="topright"/>
    </contour>
  </outline>
</glyph>
<glyph name="M" format="1">
  <advance width="830"/>
  <unicode hex="004D"/>
  <outline>
    <contour>
      <point x="687" y="597" type="line"/>
      <point x="410" y="115" type="line"/>
      <point x="255" y="597" type="line"/>
      <point x="104" y="597" type="line"/>
      <point x="100" y="567" type="line"/>
      <point x="145" y="569" type="line" smooth="yes"/>
      <point x="148" y="569"/>
      <point x="150" y="567"/>
      <point x="149" y="563" type="curve" smooth="yes"/>
      <point x="77" y="49" type="line" smooth="yes"/>
      <point x="75" y="34"/>
      <point x="68" y="27"/>
      <point x="56" y="27" type="curve" smooth="yes"/>
      <point x="17" y="29" type="line"/>
      <point x="13" y="0" type="line"/>
      <point x="171" y="0" type="line"/>
      <point x="175" y="29" type="line"/>
      <point x="126" y="27" type="line"/>
      <point x="115" y="27"/>
      <point x="111" y="34"/>
      <point x="113" y="49" type="curve" smooth="yes"/>
      <point x="179" y="520" type="line"/>
      <point x="350" y="-10" type="line"/>
      <point x="376" y="-10" type="line"/>
      <point x="675" y="513" type="line"/>
      <point x="610" y="49" type="line" smooth="yes"/>
      <point x="608" y="34"/>
      <point x="601" y="27"/>
      <point x="590" y="27" type="curve" smooth="yes"/>
      <point x="541" y="29" type="line"/>
      <point x="537" y="0" type="line"/>
      <point x="752" y="0" type="line"/>
      <point x="756" y="29" type="line"/>
      <point x="717" y="27" type="line"/>
      <point x="705" y="27"/>
      <point x="700" y="34"/>
      <point x="702" y="49" type="curve" smooth="yes"/>
      <point x="772" y="549" type="line" smooth="yes"/>
      <point x="774" y="561"/>
      <point x="782" y="569"/>
      <point x="793" y="569" type="curve" smooth="yes"/>
      <point x="827" y="567" type="line"/>
      <point x="831" y="597" type="line"/>
    </contour>
  </outline>
</glyph>
<glyph name="O" format="1">
  <advance width="649"/>
  <unicode hex="004F"/>
  <outline>
    <contour>
      <point x="50" y="25"/>
      <point x="205" y="-10"/>
      <point x="293" y="-10" type="curve" smooth="yes"/>
      <point x="400" y="-10"/>
      <point x="623" y="36"/>
      <point x="623" y="356" type="curve" smooth="yes"/>
      <point x="623" y="575"/>
      <point x="466" y="607"/>
      <point x="379" y="607" type="curve" smooth="yes"/>
      <point x="271" y="607"/>
      <point x="50" y="562"/>
      <point x="50" y="242" type="curve" smooth="yes"/>
    </contour>
    <contour>
      <point x="148" y="308"/>
      <point x="167" y="385"/>
      <point x="189" y="443" type="curve" smooth="yes"/>
      <point x="222" y="532"/>
      <point x="280" y="580"/>
      <point x="366" y="580" type="curve" smooth="yes"/>
      <point x="476" y="580"/>
      <point x="524" y="532"/>
      <point x="524" y="383" type="curve" smooth="yes"/>
      <point x="524" y="283"/>
      <point x="504" y="200"/>
      <point x="478" y="139" type="curve" smooth="yes"/>
      <point x="444" y="60"/>
      <point x="388" y="17"/>
      <point x="306" y="17" type="curve" smooth="yes"/>
      <point x="197" y="17"/>
      <point x="148" y="65"/>
      <point x="148" y="215" type="curve" smooth="yes"/>
    </contour>
    <contour>
      <point x="378" y="598" type="move" name="top"/>
    </contour>
  </outline>
</glyph>
<glyph name="Q" format="1">
  <advance width="649"/>
  <unicode hex="0051"/>
  <outline>
    <contour>
      <point x="582" y="-86" type="line"/>
      <point x="553" y="-93"/>
      <point x="528" y="-98"/>
      <point x="504" y="-98" type="curve" smooth="yes"/>
      <point x="455" y="-98"/>
      <point x="412" y="-73"/>
      <point x="352" y="14" type="curve"/>
      <point x="304" y="9" type="line"/>
      <point x="286" y="2" type="line"/>
      <point x="350" y="-106"/>
      <point x="404" y="-156"/>
      <point x="466" y="-156" type="curve" smooth="yes"/>
      <point x="503" y="-156"/>
      <point x="543" y="-141"/>
      <point x="589" y="-112" type="curve"/>
    </contour>
    <component base="O"/>
  </outline>
</glyph>
<glyph name="S" format="1">
  <advance width="479"/>
  <unicode hex="0053"/>
  <outline>
    <contour>
      <point x="157" y="607"/>
      <point x="83" y="526"/>
      <point x="83" y="441" type="curve" smooth="yes"/>
      <point x="83" y="360"/>
      <point x="136" y="321"/>
      <point x="195" y="288" type="curve" smooth="yes"/>
      <point x="244" y="261" type="line" smooth="yes"/>
      <point x="297" y="231"/>
      <point x="343" y="197"/>
      <point x="343" y="132" type="curve" smooth="yes"/>
      <point x="343" y="67"/>
      <point x="284" y="18"/>
      <point x="221" y="18" type="curve" smooth="yes"/>
      <point x="117" y="18"/>
      <point x="68" y="82"/>
      <point x="71" y="203" type="curve"/>
      <point x="44" y="203" type="line"/>
      <point x="45" y="199"/>
      <point x="45" y="183"/>
      <point x="45" y="172" type="curve" smooth="yes"/>
      <point x="45" y="57"/>
      <point x="26" y="28"/>
      <point x="20" y="10" type="curve"/>
      <point x="22" y="11"/>
      <point x="49" y="18"/>
      <point x="69" y="18" type="curve" smooth="yes"/>
      <point x="84" y="18"/>
      <point x="109" y="10"/>
      <point x="139" y="3" type="curve" smooth="yes"/>
      <point x="166" y="-4"/>
      <point x="196" y="-10"/>
      <point x="228" y="-10" type="curve" smooth="yes"/>
      <point x="336" y="-10"/>
      <point x="438" y="64"/>
      <point x="438" y="176" type="curve" smooth="yes"/>
      <point x="438" y="254"/>
      <point x="387" y="296"/>
      <point x="329" y="330" type="curve" smooth="yes"/>
      <point x="267" y="365" type="line" smooth="yes"/>
      <point x="214" y="395"/>
      <point x="171" y="426"/>
      <point x="171" y="481" type="curve" smooth="yes"/>
      <point x="172" y="542"/>
      <point x="225" y="580"/>
      <point x="297" y="580" type="curve" smooth="yes"/>
      <point x="377" y="580"/>
      <point x="431" y="522"/>
      <point x="419" y="434" type="curve"/>
      <point x="447" y="434" type="line"/>
      <point x="446" y="439"/>
      <point x="446" y="448"/>
      <point x="446" y="458" type="curve" smooth="yes"/>
      <point x="446" y="535"/>
      <point x="460" y="560"/>
      <point x="465" y="577" type="curve"/>
      <point x="454" y="573"/>
      <point x="444" y="572"/>
      <point x="434" y="572" type="curve" smooth="yes"/>
      <point x="428" y="572"/>
      <point x="419" y="574"/>
      <point x="409" y="578" type="curve" smooth="yes"/>
      <point x="359" y="596"/>
      <point x="333" y="607"/>
      <point x="289" y="607" type="curve" smooth="yes"/>
    </contour>
    <contour>
      <point x="297" y="598" type="move" name="top"/>
    </contour>
    <contour>
      <point x="227" y="0" type="move" name="bottom"/>
    </contour>
  </outline>
</glyph>
<glyph name="T" format="1">
  <advance width="512"/>
  <unicode hex="0054"/>
  <outline>
    <contour>
      <point x="548" y="598"/>
      <point x="534" y="597"/>
      <point x="512" y="597" type="curve" smooth="yes"/>
      <point x="108" y="597" type="line" smooth="yes"/>
      <point x="90" y="597"/>
      <point x="76" y="598"/>
      <point x="68" y="599" type="curve"/>
      <point x="46" y="443" type="line"/>
      <point x="74" y="443" type="line"/>
      <point x="86" y="528"/>
      <point x="125" y="569"/>
      <point x="210" y="569" type="curve" smooth="yes"/>
      <point x="250" y="569" type="line" smooth="yes"/>
      <point x="256" y="569"/>
      <point x="259" y="565"/>
      <point x="258" y="557" type="curve" smooth="yes"/>
      <point x="187" y="52" type="line" smooth="yes"/>
      <point x="185" y="39"/>
      <point x="178" y="27"/>
      <point x="167" y="27" type="curve" smooth="yes"/>
      <point x="113" y="29" type="line"/>
      <point x="109" y="0" type="line"/>
      <point x="343" y="0" type="line"/>
      <point x="347" y="29" type="line"/>
      <point x="294" y="27" type="line"/>
      <point x="283" y="27"/>
      <point x="278" y="34"/>
      <point x="280" y="49" type="curve" smooth="yes"/>
      <point x="351" y="558" type="line" smooth="yes"/>
      <point x="352" y="564"/>
      <point x="357" y="569"/>
      <point x="363" y="569" type="curve" smooth="yes"/>
      <point x="403" y="569" type="line" smooth="yes"/>
      <point x="488" y="569"/>
      <point x="514" y="528"/>
      <point x="502" y="443" type="curve"/>
      <point x="530" y="443" type="line"/>
      <point x="552" y="600" type="line"/>
    </contour>
    <contour>
      <point x="265" y="299" type="move" name="center"/>
    </contour>
    <contour>
      <point x="226" y="0" type="move" name="bottom"/>
    </contour>
    <contour>
      <point x="305" y="598" type="move" name="top"/>
    </contour>
  </outline>
</glyph>
<glyph name="bracketleft" format="1">
  <advance width="250"/>
  <unicode hex="005B"/>
  <outline>
    <contour>
      <point x="109" y="675" type="line"/>
      <point x="-7" y="-147" type="line"/>
      <point x="167" y="-147" type="line"/>
      <point x="171" y="-120" type="line"/>
      <point x="70" y="-120" type="line"/>
      <point x="178" y="648" type="line"/>
      <point x="279" y="648" type="line"/>
      <point x="283" y="675" type="line"/>
    </contour>
  </outline>
</glyph>
<glyph name="asciicircum" format="1">
  <advance width="443"/>
  <unicode hex="005E"/>
  <outline>
    <contour>
      <point x="271" y="657" type="line"/>
      <point x="32" y="321" type="line"/>
      <point x="79" y="321" type="line"/>
      <point x="255" y="567" type="line"/>
      <point x="277" y="604" type="line"/>
      <point x="289" y="567" type="line"/>
      <point x="393" y="321" type="line"/>
      <point x="441" y="321" type="line"/>
      <point x="297" y="657" type="line"/>
    </contour>
  </outline>
</glyph>
<glyph name="a" format="1">
  <advance width="466"/>
  <unicode hex="0061"/>
  <outline>
    <contour>
      <point x="143" y="430"/>
      <point x="28" y="252"/>
      <point x="28" y="112" type="curve" smooth="yes"/>
      <point x="28" y="36"/>
      <point x="61" y="-10"/>
      <point x="120" y="-10" type="curve" smooth="yes"/>
      <point x="183" y="-10"/>
      <point x="238" y="41"/>
      <point x="315" y="187" type="curve"/>
      <point x="304" y="123"/>
      <point x="294" y="65"/>
      <point x="294" y="36" type="curve" smooth="yes"/>
      <point x="294" y="5"/>
      <point x="299" y="-10"/>
      <point x="318" y="-10" type="curve" smooth="yes"/>
      <point x="346" y="-10"/>
      <point x="396" y="7"/>
      <point x="440" y="60" type="curve"/>
      <point x="428" y="80" type="line"/>
      <point x="411" y="69"/>
      <point x="398" y="67"/>
      <point x="390" y="67" type="curve" smooth="yes"/>
      <point x="381" y="67"/>
      <point x="377" y="73"/>
      <point x="377" y="84" type="curve" smooth="yes"/>
      <point x="377" y="120"/>
      <point x="397" y="230"/>
      <point x="419" y="330" type="curve"/>
      <point x="443" y="429" type="line"/>
      <point x="359" y="415" type="line"/>
      <point x="346" y="366" type="line"/>
      <point x="367" y="367" type="line"/>
      <point x="356" y="402"/>
      <point x="319" y="430"/>
      <point x="275" y="430" type="curve" smooth="yes"/>
    </contour>
    <contour>
      <point x="314" y="400"/>
      <point x="340" y="376"/>
      <point x="340" y="346" type="curve" smooth="yes"/>
      <point x="340" y="244"/>
      <point x="217" y="45"/>
      <point x="156" y="45" type="curve" smooth="yes"/>
      <point x="134" y="45"/>
      <point x="117" y="71"/>
      <point x="117" y="123" type="curve" smooth="yes"/>
      <point x="117" y="157"/>
      <point x="121" y="195"/>
      <point x="131" y="232" type="curve" smooth="yes"/>
      <point x="152" y="320"/>
      <point x="200" y="400"/>
      <point x="277" y="400" type="curve" smooth="yes"/>
    </contour>
    <contour>
      <point x="388" y="14" type="move" name="ogonek"/>
    </contour>
    <contour>
      <point x="274" y="420" type="move" name="top"/>
    </contour>
  </outline>
</glyph>
<glyph name="b" format="1">
  <advance width="457"/>
  <unicode hex="0062"/>
  <outline>
    <contour>
      <point x="150" y="730"/>
      <point x="101" y="721"/>
      <point x="57" y="698" type="curve"/>
      <point x="63" y="673" type="line"/>
      <point x="68" y="674"/>
      <point x="81" y="676"/>
      <point x="89" y="676" type="curve" smooth="yes"/>
      <point x="108" y="676"/>
      <point x="120" y="667"/>
      <point x="120" y="651" type="curve" smooth="yes"/>
      <point x="120" y="564"/>
      <point x="53" y="184"/>
      <point x="53" y="84" type="curve" smooth="yes"/>
      <point x="53" y="26"/>
      <point x="93" y="-7"/>
      <point x="168" y="-7" type="curve" smooth="yes"/>
      <point x="328" y="-7"/>
      <point x="435" y="163"/>
      <point x="435" y="301" type="curve" smooth="yes"/>
      <point x="435" y="378"/>
      <point x="396" y="430"/>
      <point x="335" y="430" type="curve" smooth="yes"/>
      <point x="276" y="430"/>
      <point x="204" y="377"/>
      <point x="142" y="240" type="curve"/>
      <point x="168" y="441"/>
      <point x="213" y="687"/>
      <point x="213" y="708" type="curve" smooth="yes"/>
      <point x="213" y="725"/>
      <point x="202" y="730"/>
      <point x="175" y="730" type="curve" smooth="yes"/>
    </contour>
    <contour>
      <point x="324" y="375"/>
      <point x="346" y="339"/>
      <point x="346" y="279" type="curve" smooth="yes"/>
      <point x="346" y="251"/>
      <point x="341" y="213"/>
      <point x="331" y="174" type="curve" smooth="yes"/>
      <point x="311" y="99"/>
      <point x="268" y="23"/>
      <point x="194" y="23" type="curve" smooth="yes"/>
      <point x="167" y="23"/>
      <point x="123" y="33"/>
      <point x="123" y="95" type="curve" smooth="yes"/>
      <point x="123" y="196"/>
      <point x="242" y="375"/>
      <point x="299" y="375" type="curve" smooth="yes"/>
    </contour>
  </outline>
</glyph>
<glyph name="c" format="1">
  <advance width="406"/>
  <unicode hex="0063"/>
  <outline>
    <contour>
      <point x="141" y="430"/>
      <point x="26" y="291"/>
      <point x="26" y="145" type="curve" smooth="yes"/>
      <point x="26" y="54"/>
      <point x="80" y="-9"/>
      <point x="171" y="-9" type="curve" smooth="yes"/>
      <point x="231" y="-9"/>
      <point x="297" y="33"/>
      <point x="346" y="84" type="curve"/>
      <point x="324" y="100" type="line"/>
      <point x="282" y="74"/>
      <point x="232" y="45"/>
      <point x="192" y="45" type="curve" smooth="yes"/>
      <point x="143" y="45"/>
      <point x="115" y="90"/>
      <point x="115" y="158" type="curve" smooth="yes"/>
      <point x="115" y="211"/>
      <point x="128" y="264"/>
      <point x="149" y="307" type="curve" smooth="yes"/>
      <point x="174" y="358"/>
      <point x="210" y="400"/>
      <point x="263" y="400" type="curve" smooth="yes"/>
      <point x="293" y="400"/>
      <point x="316" y="386"/>
      <point x="316" y="358" type="curve" smooth="yes"/>
      <point x="316" y="334"/>
      <point x="300" y="325"/>
      <point x="300" y="304" type="curve" smooth="yes"/>
      <point x="300" y="285"/>
      <point x="313" y="278"/>
      <point x="332" y="278" type="curve" smooth="yes"/>
      <point x="372" y="278"/>
      <point x="387" y="310"/>
      <point x="387" y="337" type="curve" smooth="yes"/>
      <point x="387" y="389"/>
      <point x="334" y="430"/>
      <point x="265" y="430" type="curve" smooth="yes"/>
    </contour>
    <contour>
      <point x="227" y="420" type="move" name="top"/>
    </contour>
    <contour>
      <point x="172" y="0" type="move" name="bottom"/>
    </contour>
  </outline>
</glyph>
<glyph name="f" format="1">
  <advance width="284"/>
  <unicode hex="0066"/>
  <outline>
    <contour>
      <point x="139" y="420" type="line"/>
      <point x="56" y="420" type="line"/>
      <point x="29" y="389" type="line"/>
      <point x="131" y="389" type="line"/>
    </contour>
    <contour>
      <point x="197" y="389" type="line"/>
      <point x="281" y="389" type="line"/>
      <point x="310" y="405" type="line"/>
      <point x="310" y="420" type="line"/>
      <point x="203" y="420" type="line"/>
    </contour>
    <contour>
      <point x="209" y="454" type="line" smooth="yes"/>
      <point x="231" y="652"/>
      <point x="270" y="703"/>
      <point x="319" y="703" type="curve" smooth="yes"/>
      <point x="351" y="703"/>
      <point x="359" y="682"/>
      <point x="359" y="663" type="curve" smooth="yes"/>
      <point x="359" y="643"/>
      <point x="350" y="634"/>
      <point x="350" y="617" type="curve" smooth="yes"/>
      <point x="350" y="594"/>
      <point x="368" y="588"/>
      <point x="386" y="588" type="curve" smooth="yes"/>
      <point x="421" y="588"/>
      <point x="433" y="613"/>
      <point x="433" y="639" type="curve" smooth="yes"/>
      <point x="433" y="690"/>
      <point x="389" y="730"/>
      <point x="324" y="730" type="curve" smooth="yes"/>
      <point x="206" y="730"/>
      <point x="139" y="600"/>
      <point x="121" y="440" type="curve" smooth="yes"/>
      <point x="80" y="72" type="line" smooth="yes"/>
      <point x="58" y="-123"/>
      <point x="34" y="-218"/>
      <point x="-29" y="-218" type="curve" smooth="yes"/>
      <point x="-48" y="-218"/>
      <point x="-60" y="-209"/>
      <point x="-60" y="-193" type="curve" smooth="yes"/>
      <point x="-60" y="-182"/>
      <point x="-54" y="-174"/>
      <point x="-54" y="-162" type="curve" smooth="yes"/>
      <point x="-54" y="-141"/>
      <point x="-73" y="-134"/>
      <point x="-91" y="-134" type="curve" smooth="yes"/>
      <point x="-123" y="-134"/>
      <point x="-136" y="-157"/>
      <point x="-136" y="-178" type="curve" smooth="yes"/>
      <point x="-136" y="-219"/>
      <point x="-89" y="-245"/>
      <point x="-37" y="-245" type="curve" smooth="yes"/>
      <point x="90" y="-245"/>
      <point x="148" y="-94"/>
      <point x="170" y="102" type="curve" smooth="yes"/>
    </contour>
  </outline>
</glyph>
<glyph name="k" format="1">
  <advance width="481"/>
  <unicode hex="006B"/>
  <outline>
    <contour>
      <point x="260" y="430"/>
      <point x="189" y="311"/>
      <point x="149" y="214" type="curve"/>
      <point x="135" y="101" type="line"/>
      <point x="161" y="219"/>
      <point x="256" y="375"/>
      <point x="321" y="375" type="curve" smooth="yes"/>
      <point x="337" y="375"/>
      <point x="353" y="362"/>
      <point x="353" y="333" type="curve" smooth="yes"/>
      <point x="353" y="290"/>
      <point x="317" y="236"/>
      <point x="229" y="206" type="curve"/>
      <point x="286" y="40" type="line" smooth="yes"/>
      <point x="296" y="10"/>
      <point x="309" y="-10"/>
      <point x="342" y="-10" type="curve" smooth="yes"/>
      <point x="371" y="-10"/>
      <point x="410" y="18"/>
      <point x="448" y="60" type="curve"/>
      <point x="436" y="80" type="line"/>
      <point x="410" y="63"/>
      <point x="389" y="60"/>
      <point x="382" y="60" type="curve" smooth="yes"/>
      <point x="367" y="60"/>
      <point x="361" y="73"/>
      <point x="357" y="85" type="curve" smooth="yes"/>
      <point x="307" y="219" type="line"/>
      <point x="388" y="255"/>
      <point x="437" y="307"/>
      <point x="437" y="357" type="curve" smooth="yes"/>
      <point x="437" y="397"/>
      <point x="406" y="430"/>
      <point x="357" y="430" type="curve" smooth="yes"/>
    </contour>
    <contour>
      <point x="164" y="730"/>
      <point x="118" y="722"/>
      <point x="70" y="698" type="curve"/>
      <point x="76" y="673" type="line"/>
      <point x="85" y="675"/>
      <point x="93" y="675"/>
      <point x="100" y="675" type="curve" smooth="yes"/>
      <point x="120" y="675"/>
      <point x="133" y="667"/>
      <point x="133" y="651" type="curve" smooth="yes"/>
      <point x="133" y="580"/>
      <point x="59" y="87"/>
      <point x="45" y="0" type="curve"/>
      <point x="124" y="0" type="line"/>
      <point x="139" y="123" type="line"/>
      <point x="151" y="213" type="line"/>
      <point x="187" y="464" type="line" smooth="yes"/>
      <point x="195" y="518"/>
      <point x="208" y="589"/>
      <point x="216" y="640" type="curve" smooth="yes"/>
      <point x="222" y="674"/>
      <point x="226" y="700"/>
      <point x="226" y="708" type="curve" smooth="yes"/>
      <point x="226" y="727"/>
      <point x="212" y="730"/>
      <point x="188" y="730" type="curve" smooth="yes"/>
    </contour>
    <contour>
      <point x="225" y="0" type="move" name="bottom"/>
    </contour>
  </outline>
</glyph>
<glyph name="m" format="1">
  <advance width="761"/>
  <unicode hex="006D"/>
  <outline>
    <contour>
      <point x="426" y="238" type="line"/>
      <point x="435" y="277"/>
      <point x="441" y="315"/>
      <point x="441" y="340" type="curve" smooth="yes"/>
      <point x="441" y="393"/>
      <point x="407" y="430"/>
      <point x="360" y="430" type="curve" smooth="yes"/>
      <point x="263" y="430"/>
      <point x="192" y="311"/>
      <point x="152" y="213" type="curve"/>
      <point x="138" y="103" type="line"/>
      <point x="165" y="220"/>
      <point x="260" y="375"/>
      <point x="324" y="375" type="curve" smooth="yes"/>
      <point x="346" y="375"/>
      <point x="360" y="357"/>
      <point x="360" y="328" type="curve" smooth="yes"/>
      <point x="360" y="267"/>
      <point x="331" y="100"/>
      <point x="314" y="0" type="curve"/>
      <point x="392" y="0" type="line"/>
      <point x="407" y="125" type="line"/>
    </contour>
    <contour>
      <point x="403" y="102" type="line"/>
      <point x="429" y="220"/>
      <point x="519" y="375"/>
      <point x="583" y="375" type="curve" smooth="yes"/>
      <point x="610" y="375"/>
      <point x="626" y="355"/>
      <point x="626" y="324" type="curve" smooth="yes"/>
      <point x="626" y="256"/>
      <point x="578" y="90"/>
      <point x="578" y="35" type="curve" smooth="yes"/>
      <point x="578" y="7"/>
      <point x="589" y="-10"/>
      <point x="610" y="-10" type="curve" smooth="yes"/>
      <point x="639" y="-10"/>
      <point x="686" y="16"/>
      <point x="728" y="60" type="curve"/>
      <point x="716" y="80" type="line"/>
      <point x="699" y="69"/>
      <point x="685" y="67"/>
      <point x="679" y="67" type="curve" smooth="yes"/>
      <point x="662" y="67"/>
      <point x="660" y="83"/>
      <point x="660" y="90" type="curve" smooth="yes"/>
      <point x="660" y="126"/>
      <point x="708" y="276"/>
      <point x="708" y="340" type="curve" smooth="yes"/>
      <point x="708" y="393"/>
      <point x="674" y="430"/>
      <point x="619" y="430" type="curve" smooth="yes"/>
      <point x="531" y="430"/>
      <point x="466" y="332"/>
      <point x="424" y="240" type="curve"/>
    </contour>
    <contour>
      <point x="156" y="211" type="line"/>
      <point x="167" y="281"/>
      <point x="188" y="388"/>
      <point x="188" y="407" type="curve" smooth="yes"/>
      <point x="188" y="423"/>
      <point x="169" y="426"/>
      <point x="151" y="426" type="curve" smooth="yes"/>
      <point x="114" y="426"/>
      <point x="79" y="413"/>
      <point x="48" y="400" type="curve"/>
      <point x="53" y="371" type="line"/>
      <point x="57" y="372"/>
      <point x="64" y="373"/>
      <point x="69" y="373" type="curve" smooth="yes"/>
      <point x="89" y="373"/>
      <point x="98" y="361"/>
      <point x="98" y="341" type="curve" smooth="yes"/>
      <point x="98" y="278"/>
      <point x="68" y="103"/>
      <point x="51" y="0" type="curve"/>
      <point x="129" y="0" type="line"/>
      <point x="144" y="125" type="line"/>
    </contour>
  </outline>
</glyph>
<glyph name="n" format="1">
  <advance width="504"/>
  <unicode hex="006E"/>
  <outline>
    <contour>
      <point x="156" y="211" type="line"/>
      <point x="167" y="281"/>
      <point x="188" y="388"/>
      <point x="188" y="407" type="curve" smooth="yes"/>
      <point x="188" y="423"/>
      <point x="169" y="426"/>
      <point x="151" y="426" type="curve" smooth="yes"/>
      <point x="114" y="426"/>
      <point x="79" y="413"/>
      <point x="48" y="400" type="curve"/>
      <point x="53" y="371" type="line"/>
      <point x="57" y="372"/>
      <point x="64" y="373"/>
      <point x="69" y="373" type="curve" smooth="yes"/>
      <point x="89" y="373"/>
      <point x="98" y="361"/>
      <point x="98" y="341" type="curve" smooth="yes"/>
      <point x="98" y="278"/>
      <point x="68" y="103"/>
      <point x="51" y="0" type="curve"/>
      <point x="129" y="0" type="line"/>
      <point x="144" y="125" type="line"/>
    </contour>
    <contour>
      <point x="140" y="103" type="line"/>
      <point x="167" y="220"/>
      <point x="262" y="375"/>
      <point x="326" y="375" type="curve" smooth="yes"/>
      <point x="353" y="375"/>
      <point x="369" y="355"/>
      <point x="369" y="324" type="curve" smooth="yes"/>
      <point x="369" y="256"/>
      <point x="321" y="90"/>
      <point x="321" y="35" type="curve" smooth="yes"/>
      <point x="321" y="7"/>
      <point x="335" y="-10"/>
      <point x="353" y="-10" type="curve" smooth="yes"/>
      <point x="382" y="-10"/>
      <point x="429" y="16"/>
      <point x="471" y="60" type="curve"/>
      <point x="459" y="80" type="line"/>
      <point x="442" y="69"/>
      <point x="428" y="67"/>
      <point x="422" y="67" type="curve" smooth="yes"/>
      <point x="405" y="67"/>
      <point x="403" y="83"/>
      <point x="403" y="90" type="curve" smooth="yes"/>
      <point x="403" y="126"/>
      <point x="451" y="276"/>
      <point x="451" y="340" type="curve" smooth="yes"/>
      <point x="451" y="393"/>
      <point x="417" y="430"/>
      <point x="362" y="430" type="curve" smooth="yes"/>
      <point x="265" y="430"/>
      <point x="194" y="311"/>
      <point x="154" y="213" type="curve"/>
    </contour>
    <contour>
      <point x="279" y="420" type="move" name="top"/>
    </contour>
    <contour>
      <point x="217" y="0" type="move" name="bottom"/>
    </contour>
  </outline>
</glyph>
<glyph name="p" format="1">
  <advance width="472"/>
  <unicode hex="0070"/>
  <outline>
    <contour>
      <point x="286" y="430"/>
      <point x="211" y="372"/>
      <point x="147" y="216" type="curve"/>
      <point x="119" y="41" type="line"/>
      <point x="134" y="12"/>
      <point x="171" y="-10"/>
      <point x="218" y="-10" type="curve" smooth="yes"/>
      <point x="350" y="-10"/>
      <point x="450" y="161"/>
      <point x="450" y="300" type="curve" smooth="yes"/>
      <point x="450" y="378"/>
      <point x="411" y="430"/>
      <point x="348" y="430" type="curve" smooth="yes"/>
    </contour>
    <contour>
      <point x="110" y="426"/>
      <point x="75" y="413"/>
      <point x="44" y="400" type="curve"/>
      <point x="49" y="371" type="line"/>
      <point x="53" y="372"/>
      <point x="60" y="373"/>
      <point x="65" y="373" type="curve" smooth="yes"/>
      <point x="85" y="373"/>
      <point x="94" y="361"/>
      <point x="94" y="341" type="curve" smooth="yes"/>
      <point x="94" y="288"/>
      <point x="38" y="-92"/>
      <point x="21" y="-195" type="curve" smooth="yes"/>
      <point x="19" y="-208"/>
      <point x="15" y="-214"/>
      <point x="7" y="-215" type="curve"/>
      <point x="-24" y="-213" type="line"/>
      <point x="-28" y="-239" type="line"/>
      <point x="166" y="-239" type="line"/>
      <point x="170" y="-213" type="line"/>
      <point x="107" y="-215" type="line" smooth="yes"/>
      <point x="101" y="-215"/>
      <point x="98" y="-211"/>
      <point x="98" y="-203" type="curve" smooth="yes"/>
      <point x="99" y="-157"/>
      <point x="122" y="3"/>
      <point x="139" y="122" type="curve"/>
      <point x="152" y="211" type="line" smooth="yes"/>
      <point x="163" y="281"/>
      <point x="184" y="388"/>
      <point x="184" y="407" type="curve" smooth="yes"/>
      <point x="184" y="423"/>
      <point x="165" y="426"/>
      <point x="147" y="426" type="curve" smooth="yes"/>
    </contour>
    <contour>
      <point x="339" y="375"/>
      <point x="361" y="340"/>
      <point x="361" y="276" type="curve" smooth="yes"/>
      <point x="361" y="251"/>
      <point x="358" y="217"/>
      <point x="349" y="182" type="curve" smooth="yes"/>
      <point x="331" y="103"/>
      <point x="291" y="20"/>
      <point x="214" y="20" type="curve" smooth="yes"/>
      <point x="188" y="20"/>
      <point x="137" y="30"/>
      <point x="137" y="94" type="curve" smooth="yes"/>
      <point x="137" y="192"/>
      <point x="255" y="375"/>
      <point x="312" y="375" type="curve" smooth="yes"/>
    </contour>
  </outline>
</glyph>
<glyph name="x" format="1">
  <advance width="471"/>
  <unicode hex="0078"/>
  <outline>
    <contour>
      <point x="134" y="426"/>
      <point x="85" y="413"/>
      <point x="51" y="400" type="curve"/>
      <point x="56" y="371" type="line"/>
      <point x="74" y="373"/>
      <point x="88" y="374"/>
      <point x="101" y="374" type="curve" smooth="yes"/>
      <point x="119" y="374"/>
      <point x="123" y="366"/>
      <point x="134" y="341" type="curve" smooth="yes"/>
      <point x="273" y="17" type="line" smooth="yes"/>
      <point x="283" y="-3"/>
      <point x="293" y="-10"/>
      <point x="309" y="-10" type="curve" smooth="yes"/>
      <point x="335" y="-10"/>
      <point x="381" y="19"/>
      <point x="427" y="65" type="curve"/>
      <point x="415" y="85" type="line"/>
      <point x="386" y="72"/>
      <point x="366" y="66"/>
      <point x="355" y="66" type="curve" smooth="yes"/>
      <point x="346" y="66"/>
      <point x="341" y="69"/>
      <point x="335" y="81" type="curve" smooth="yes"/>
      <point x="213" y="368" type="line" smooth="yes"/>
      <point x="195" y="411"/>
      <point x="187" y="426"/>
      <point x="164" y="426" type="curve" smooth="yes"/>
    </contour>
    <contour>
      <point x="134" y="84" type="line" smooth="yes"/>
      <point x="124" y="69"/>
      <point x="116" y="66"/>
      <point x="106" y="65" type="curve" smooth="yes"/>
      <point x="89" y="64"/>
      <point x="71" y="85"/>
      <point x="51" y="84" type="curve" smooth="yes"/>
      <point x="25" y="83"/>
      <point x="7" y="59"/>
      <point x="9" y="28" type="curve" smooth="yes"/>
      <point x="10" y="-2"/>
      <point x="32" y="-11"/>
      <point x="54" y="-10" type="curve" smooth="yes"/>
      <point x="94" y="-8"/>
      <point x="122" y="14"/>
      <point x="145" y="49" type="curve" smooth="yes"/>
      <point x="245" y="201" type="line"/>
      <point x="229" y="226" type="line"/>
    </contour>
    <contour>
      <point x="379" y="420"/>
      <point x="349" y="395"/>
      <point x="328" y="363" type="curve" smooth="yes"/>
      <point x="228" y="211" type="line"/>
      <point x="244" y="186" type="line"/>
      <point x="339" y="329" type="line" smooth="yes"/>
      <point x="349" y="343"/>
      <point x="357" y="346"/>
      <point x="367" y="347" type="curve" smooth="yes"/>
      <point x="384" y="348"/>
      <point x="402" y="327"/>
      <point x="422" y="328" type="curve" smooth="yes"/>
      <point x="448" y="330"/>
      <point x="466" y="353"/>
      <point x="464" y="384" type="curve" smooth="yes"/>
      <point x="463" y="414"/>
      <point x="441" y="423"/>
      <point x="419" y="422" type="curve" smooth="yes"/>
    </contour>
  </outline>
</glyph>
<glyph name="exclamdown" format="1">
  <advance width="262"/>
  <unicode hex="00A1"/>
  <outline>
    <contour>
      <point x="109" y="234"/>
      <point x="104" y="229"/>
      <point x="103" y="218" type="curve" smooth="yes"/>
      <point x="97" y="172"/>
      <point x="78" y="61"/>
      <point x="53" y="-34" type="curve" smooth="yes"/>
      <point x="27" y="-118"/>
      <point x="14" y="-184"/>
      <point x="14" y="-203" type="curve" smooth="yes"/>
      <point x="15" y="-228"/>
      <point x="30" y="-242"/>
      <point x="58" y="-242" type="curve" smooth="yes"/>
      <point x="119" y="-242"/>
      <point x="117" y="-187"/>
      <point x="117" y="-128" type="curve" smooth="yes"/>
      <point x="117" y="-104"/>
      <point x="116" y="-70"/>
      <point x="114" y="-34" type="curve" smooth="yes"/>
      <point x="113" y="80"/>
      <point x="126" y="198"/>
      <point x="126" y="218" type="curve" smooth="yes"/>
      <point x="126" y="230"/>
      <point x="125" y="234"/>
      <point x="117" y="234" type="curve" smooth="yes"/>
    </contour>
    <contour>
      <point x="107" y="445"/>
      <point x="71" y="415"/>
      <point x="71" y="381" type="curve" smooth="yes"/>
      <point x="71" y="352"/>
      <point x="95" y="330"/>
      <point x="129" y="330" type="curve" smooth="yes"/>
      <point x="167" y="330"/>
      <point x="200" y="359"/>
      <point x="200" y="394" type="curve" smooth="yes"/>
      <point x="200" y="422"/>
      <point x="175" y="445"/>
      <point x="142" y="445" type="curve" smooth="yes"/>
    </contour>
  </outline>
</glyph>
<glyph name="currency" format="1">
  <advance width="427"/>
  <unicode hex="00A4"/>
  <outline>
    <contour>
      <point x="148" y="436"/>
      <point x="54" y="348"/>
      <point x="54" y="245" type="curve" smooth="yes"/>
      <point x="54" y="162"/>
      <point x="113" y="95"/>
      <point x="197" y="95" type="curve" smooth="yes"/>
      <point x="294" y="95"/>
      <point x="389" y="180"/>
      <point x="389" y="284" type="curve" smooth="yes"/>
      <point x="389" y="364"/>
      <point x="335" y="436"/>
      <point x="245" y="436" type="curve" smooth="yes"/>
    </contour>
    <contour>
      <point x="25" y="108" type="line"/>
      <point x="45" y="84" type="line"/>
      <point x="106" y="138" type="line"/>
      <point x="85" y="162" type="line"/>
    </contour>
    <contour>
      <point x="300" y="139" type="line"/>
      <point x="345" y="83" type="line"/>
      <point x="372" y="107" type="line"/>
      <point x="327" y="163" type="line"/>
    </contour>
    <contour>
      <point x="307" y="404"/>
      <point x="355" y="350"/>
      <point x="355" y="283" type="curve" smooth="yes"/>
      <point x="355" y="198"/>
      <point x="281" y="127"/>
      <point x="202" y="127" type="curve" smooth="yes"/>
      <point x="136" y="127"/>
      <point x="88" y="181"/>
      <point x="88" y="249" type="curve" smooth="yes"/>
      <point x="88" y="333"/>
      <point x="162" y="404"/>
      <point x="241" y="404" type="curve" smooth="yes"/>
    </contour>
    <contour>
      <point x="70" y="421" type="line"/>
      <point x="114" y="367" type="line"/>
      <point x="142" y="391" type="line"/>
      <point x="96" y="445" type="line"/>
    </contour>
    <contour>
      <point x="340" y="392" type="line"/>
      <point x="358" y="368" type="line"/>
      <point x="417" y="420" type="line"/>
      <point x="397" y="444" type="line"/>
    </contour>
  </outline>
</glyph>
<glyph name="yen" format="1">
  <advance width="491"/>
  <unicode hex="00A5"/>
  <outline>
    <contour>
      <point x="87" y="231" type="line"/>
      <point x="83" y="202" type="line"/>
      <point x="431" y="202" type="line"/>
      <point x="435" y="231" type="line"/>
    </contour>
    <contour>
      <point x="102" y="341" type="line"/>
      <point x="98" y="312" type="line"/>
      <point x="205" y="312" type="line"/>
      <point x="208" y="341" type="line"/>
    </contour>
    <contour>
      <point x="326" y="341" type="line"/>
      <point x="322" y="312" type="line"/>
      <point x="446" y="312" type="line"/>
      <point x="450" y="341" type="line"/>
    </contour>
    <component base="Y"/>
  </outline>
</glyph>
<glyph name="brokenbar" format="1">
  <advance width="226"/>
  <unicode hex="00A6"/>
  <outline>
    <contour>
      <point x="79" y="113" type="line"/>
      <point x="31" y="-231" type="line"/>
      <point x="71" y="-231" type="line"/>
      <point x="119" y="113" type="line"/>
    </contour>
    <contour>
      <point x="101" y="265" type="line"/>
      <point x="141" y="265" type="line"/>
      <point x="189" y="607" type="line"/>
      <point x="149" y="607" type="line"/>
    </contour>
  </outline>
</glyph>
<glyph name="logicalnot" format="1">
  <advance width="440"/>
  <unicode hex="00AC"/>
  <outline>
    <contour>
      <point x="40" y="360" type="line"/>
      <point x="34" y="319" type="line"/>
      <point x="391" y="319" type="line"/>
      <point x="367" y="146" type="line"/>
      <point x="412" y="146" type="line"/>
      <point x="442" y="360" type="line"/>
    </contour>
  </outline>
</glyph>
<glyph name="uni00B3" format="1">
  <advance width="251"/>
  <unicode hex="00B3"/>
  <outline>
    <contour>
      <point x="132" y="678"/>
      <point x="74" y="657"/>
      <point x="74" y="618" type="curve" smooth="yes"/>
      <point x="74" y="604"/>
      <point x="83" y="590"/>
      <point x="106" y="590" type="curve" smooth="yes"/>
      <point x="123" y="590"/>
      <point x="142" y="597"/>
      <point x="145" y="616" type="curve" smooth="yes"/>
      <point x="146" y="624"/>
      <point x="144" y="628"/>
      <point x="144" y="635" type="curve" smooth="yes"/>
      <point x="144" y="647"/>
      <point x="156" y="660"/>
      <point x="178" y="660" type="curve" smooth="yes"/>
      <point x="199" y="660"/>
      <point x="210" y="647"/>
      <point x="210" y="630" type="curve" smooth="yes"/>
      <point x="210" y="594"/>
      <point x="173" y="553"/>
      <point x="115" y="553" type="curve"/>
      <point x="113" y="537" type="line"/>
      <point x="181" y="531"/>
      <point x="208" y="519"/>
      <point x="208" y="486" type="curve" smooth="yes"/>
      <point x="208" y="446"/>
      <point x="182" y="416"/>
      <point x="143" y="416" type="curve" smooth="yes"/>
      <point x="127" y="416"/>
      <point x="109" y="421"/>
      <point x="109" y="436" type="curve" smooth="yes"/>
      <point x="109" y="442"/>
      <point x="116" y="456"/>
      <point x="116" y="463" type="curve" smooth="yes"/>
      <point x="116" y="477"/>
      <point x="105" y="486"/>
      <point x="86" y="486" type="curve" smooth="yes"/>
      <point x="59" y="486"/>
      <point x="43" y="468"/>
      <point x="43" y="448" type="curve" smooth="yes"/>
      <point x="43" y="417"/>
      <point x="85" y="397"/>
      <point x="141" y="397" type="curve" smooth="yes"/>
      <point x="219" y="397"/>
      <point x="283" y="434"/>
      <point x="283" y="488" type="curve" smooth="yes"/>
      <point x="283" y="526"/>
      <point x="244" y="546"/>
      <point x="176" y="547" type="curve"/>
      <point x="177" y="550" type="line"/>
      <point x="235" y="556"/>
      <point x="285" y="583"/>
      <point x="285" y="626" type="curve" smooth="yes"/>
      <point x="285" y="661"/>
      <point x="241" y="678"/>
      <point x="188" y="678" type="curve" smooth="yes"/>
    </contour>
  </outline>
</glyph>
<glyph name="paragraph" format="1">
  <advance width="484"/>
  <unicode hex="00B6"/>
  <outline>
    <contour>
      <point x="59" y="336"/>
      <point x="121" y="288"/>
      <point x="230" y="288" type="curve"/>
      <point x="152" y="-269" type="line"/>
      <point x="189" y="-269" type="line"/>
      <point x="301" y="528" type="line" smooth="yes"/>
      <point x="305" y="555"/>
      <point x="321" y="566"/>
      <point x="342" y="566" type="curve" smooth="yes"/>
      <point x="380" y="566" type="line"/>
      <point x="262" y="-269" type="line"/>
      <point x="299" y="-269" type="line"/>
      <point x="417" y="566" type="line"/>
      <point x="514" y="566" type="line"/>
      <point x="518" y="597" type="line"/>
      <point x="275" y="597" type="line" smooth="yes"/>
      <point x="143" y="597"/>
      <point x="59" y="528"/>
      <point x="59" y="421" type="curve" smooth="yes"/>
    </contour>
  </outline>
</glyph>
<glyph name="cedilla" format="1">
  <advance width="227"/>
  <unicode hex="00B8"/>
  <outline>
    <contour>
      <point x="77" y="0" type="line"/>
      <point x="32" y="-52" type="line"/>
      <point x="25" y="-58"/>
      <point x="23" y="-62"/>
      <point x="23" y="-66" type="curve" smooth="yes"/>
      <point x="23" y="-71"/>
      <point x="27" y="-76"/>
      <point x="33" y="-80" type="curve" smooth="yes"/>
      <point x="53" y="-94" type="line" smooth="yes"/>
      <point x="65" y="-103"/>
      <point x="78" y="-115"/>
      <point x="78" y="-130" type="curve" smooth="yes"/>
      <point x="78" y="-161"/>
      <point x="51" y="-187"/>
      <point x="20" y="-187" type="curve" smooth="yes"/>
      <point x="7" y="-187"/>
      <point x="-5" y="-182"/>
      <point x="-12" y="-171" type="curve"/>
      <point x="-24" y="-198" type="line"/>
      <point x="-3" y="-213"/>
      <point x="25" y="-214"/>
      <point x="42" y="-214" type="curve" smooth="yes"/>
      <point x="109" y="-214"/>
      <point x="146" y="-170"/>
      <point x="146" y="-117" type="curve" smooth="yes"/>
      <point x="146" y="-73"/>
      <point x="72" y="-85"/>
      <point x="72" y="-63" type="curve" smooth="yes"/>
      <point x="72" y="-59"/>
      <point x="75" y="-51"/>
      <point x="81" y="-43" type="curve" smooth="yes"/>
      <point x="112" y="0" type="line"/>
    </contour>
    <contour>
      <point x="84" y="0" type="move" name="_bottom"/>
    </contour>
  </outline>
</glyph>
<glyph name="threequarters" format="1">
  <advance width="559"/>
  <unicode hex="00BE"/>
  <outline>
    <contour>
      <point x="404" y="65" type="line"/>
      <point x="399" y="30" type="line" smooth="yes"/>
      <point x="398" y="24"/>
      <point x="395" y="21"/>
      <point x="389" y="21" type="curve" smooth="yes"/>
      <point x="356" y="21" type="line"/>
      <point x="353" y="0" type="line"/>
      <point x="493" y="0" type="line"/>
      <point x="496" y="21" type="line"/>
      <point x="476" y="21" type="line" smooth="yes"/>
      <point x="470" y="21"/>
      <point x="467" y="24"/>
      <point x="468" y="30" type="curve" smooth="yes"/>
      <point x="473" y="65" type="line"/>
      <point x="509" y="65" type="line"/>
      <point x="514" y="102" type="line"/>
      <point x="478" y="102" type="line"/>
      <point x="502" y="274" type="line"/>
      <point x="469" y="274" type="line"/>
      <point x="282" y="98" type="line"/>
      <point x="277" y="65" type="line"/>
    </contour>
    <contour>
      <point x="436" y="211" type="line"/>
      <point x="425" y="216" type="line"/>
      <point x="409" y="102" type="line"/>
      <point x="299" y="102" type="line"/>
      <point x="304" y="88" type="line"/>
    </contour>
    <component base="fraction" xOffset="204"/>
    <component base="uni00B3" xOffset="14" yOffset="-71"/>
  </outline>
</glyph>
<glyph name="questiondown" format="1">
  <advance width="389"/>
  <unicode hex="00BF"/>
  <outline>
    <contour>
      <point x="163" y="197" type="line"/>
      <point x="189" y="182"/>
      <point x="199" y="158"/>
      <point x="199" y="134" type="curve" smooth="yes"/>
      <point x="199" y="26"/>
      <point x="-14" y="-14"/>
      <point x="-14" y="-137" type="curve" smooth="yes"/>
      <point x="-14" y="-199"/>
      <point x="46" y="-235"/>
      <point x="139" y="-235" type="curve" smooth="yes"/>
      <point x="225" y="-235"/>
      <point x="320" y="-205"/>
      <point x="320" y="-144" type="curve" smooth="yes"/>
      <point x="320" y="-125"/>
      <point x="310" y="-103"/>
      <point x="279" y="-103" type="curve" smooth="yes"/>
      <point x="260" y="-103"/>
      <point x="238" y="-111"/>
      <point x="238" y="-135" type="curve" smooth="yes"/>
      <point x="238" y="-145"/>
      <point x="243" y="-151"/>
      <point x="243" y="-162" type="curve" smooth="yes"/>
      <point x="243" y="-193"/>
      <point x="199" y="-208"/>
      <point x="158" y="-208" type="curve" smooth="yes"/>
      <point x="101" y="-208"/>
      <point x="75" y="-178"/>
      <point x="75" y="-145" type="curve" smooth="yes"/>
      <point x="75" y="-54"/>
      <point x="270" y="34"/>
      <point x="270" y="114" type="curve" smooth="yes"/>
      <point x="270" y="161"/>
      <point x="214" y="207"/>
      <point x="178" y="216" type="curve"/>
    </contour>
    <contour>
      <point x="210" y="445"/>
      <point x="173" y="421"/>
      <point x="173" y="380" type="curve" smooth="yes"/>
      <point x="173" y="347"/>
      <point x="201" y="330"/>
      <point x="231" y="330" type="curve" smooth="yes"/>
      <point x="271" y="330"/>
      <point x="304" y="362"/>
      <point x="304" y="396" type="curve" smooth="yes"/>
      <point x="304" y="429"/>
      <point x="274" y="445"/>
      <point x="246" y="445" type="curve" smooth="yes"/>
    </contour>
  </outline>
</glyph>
<glyph name="ae" format="1">
  <advance width="643"/>
  <unicode hex="00E6"/>
  <outline>
    <contour>
      <point x="188" y="410"/>
      <point x="13" y="248"/>
      <point x="13" y="103" type="curve" smooth="yes"/>
      <point x="13" y="40"/>
      <point x="46" y="-10"/>
      <point x="106" y="-10" type="curve" smooth="yes"/>
      <point x="182" y="-10"/>
      <point x="238" y="51"/>
      <point x="308" y="205" type="curve"/>
      <point x="289" y="230" type="line"/>
      <point x="258" y="139"/>
      <point x="192" y="45"/>
      <point x="141" y="45" type="curve" smooth="yes"/>
      <point x="114" y="45"/>
      <point x="102" y="85"/>
      <point x="102" y="115" type="curve" smooth="yes"/>
      <point x="102" y="155"/>
      <point x="119" y="211"/>
      <point x="155" y="261" type="curve" smooth="yes"/>
      <point x="200" y="325"/>
      <point x="274" y="380"/>
      <point x="380" y="380" type="curve" smooth="yes"/>
      <point x="398" y="380"/>
      <point x="411" y="378"/>
      <point x="423" y="375" type="curve"/>
      <point x="453" y="394" type="line"/>
      <point x="434" y="404"/>
      <point x="412" y="410"/>
      <point x="376" y="410" type="curve" smooth="yes"/>
    </contour>
    <component base="e" xOffset="244"/>
    <contour>
      <point x="361" y="420" type="move" name="top"/>
    </contour>
  </outline>
</glyph>
<glyph name="divide" format="1">
  <advance width="445"/>
  <unicode hex="00F7"/>
  <outline>
    <contour>
      <point x="29" y="290" type="line"/>
      <point x="23" y="249" type="line"/>
      <point x="432" y="249" type="line"/>
      <point x="438" y="290" type="line"/>
    </contour>
    <contour>
      <point x="178" y="145"/>
      <point x="151" y="123"/>
      <point x="151" y="91" type="curve" smooth="yes"/>
      <point x="151" y="66"/>
      <point x="170" y="50"/>
      <point x="198" y="50" type="curve" smooth="yes"/>
      <point x="233" y="50"/>
      <point x="260" y="71"/>
      <point x="260" y="103" type="curve" smooth="yes"/>
      <point x="260" y="130"/>
      <point x="239" y="145"/>
      <point x="211" y="145" type="curve" smooth="yes"/>
    </contour>
    <contour>
      <point x="226" y="484"/>
      <point x="199" y="464"/>
      <point x="199" y="430" type="curve" smooth="yes"/>
      <point x="199" y="405"/>
      <point x="217" y="389"/>
      <point x="246" y="389" type="curve" smooth="yes"/>
      <point x="281" y="389"/>
      <point x="308" y="410"/>
      <point x="308" y="442" type="curve" smooth="yes"/>
      <point x="308" y="469"/>
      <point x="287" y="484"/>
      <point x="259" y="484" type="curve" smooth="yes"/>
    </contour>
  </outline>
</glyph>
<glyph name="ldot" format="1">
  <advance width="236"/>
  <unicode hex="0140"/>
  <outline>
    <contour>
      <point x="186" y="303"/>
      <point x="205" y="284"/>
      <point x="231" y="284" type="curve" smooth="yes"/>
      <point x="265" y="284"/>
      <point x="292" y="309"/>
      <point x="292" y="344" type="curve" smooth="yes"/>
      <point x="292" y="370"/>
      <point x="274" y="389"/>
      <point x="247" y="389" type="curve" smooth="yes"/>
      <point x="214" y="389"/>
      <point x="186" y="363"/>
      <point x="186" y="329" type="curve" smooth="yes"/>
    </contour>
    <component base="l"/>
  </outline>
</glyph>
<glyph name="lslash" format="1">
  <advance width="249"/>
  <unicode hex="0142"/>
  <outline>
    <contour>
      <point x="98" y="403" type="line"/>
      <point x="24" y="346" type="line"/>
      <point x="17" y="299" type="line"/>
      <point x="91" y="356" type="line"/>
    </contour>
    <contour>
      <point x="167" y="408" type="line"/>
      <point x="242" y="465" type="line"/>
      <point x="249" y="513" type="line"/>
      <point x="175" y="455" type="line"/>
    </contour>
    <component base="l"/>
  </outline>
</glyph>
<glyph name="OE" format="1">
  <advance width="834"/>
  <unicode hex="0152"/>
  <outline>
    <contour>
      <point x="151" y="607"/>
      <point x="50" y="457"/>
      <point x="50" y="237" type="curve" smooth="yes"/>
      <point x="50" y="79"/>
      <point x="137" y="-10"/>
      <point x="298" y="-10" type="curve" smooth="yes"/>
      <point x="300" y="-10"/>
      <point x="364" y="0"/>
      <point x="434" y="0" type="curve" smooth="yes"/>
      <point x="675" y="0" type="line" smooth="yes"/>
      <point x="717" y="0"/>
      <point x="745" y="-1"/>
      <point x="762" y="-3" type="curve"/>
      <point x="787" y="179" type="line"/>
      <point x="758" y="179" type="line"/>
      <point x="745" y="82"/>
      <point x="691" y="27"/>
      <point x="603" y="27" type="curve" smooth="yes"/>
      <point x="492" y="27" type="line" smooth="yes"/>
      <point x="485" y="27"/>
      <point x="482" y="31"/>
      <point x="483" y="40" type="curve" smooth="yes"/>
      <point x="519" y="297" type="line"/>
      <point x="591" y="297" type="line" smooth="yes"/>
      <point x="630" y="297"/>
      <point x="658" y="255"/>
      <point x="649" y="195" type="curve"/>
      <point x="678" y="195" type="line"/>
      <point x="711" y="426" type="line"/>
      <point x="682" y="426" type="line"/>
      <point x="673" y="362"/>
      <point x="636" y="324"/>
      <point x="595" y="324" type="curve" smooth="yes"/>
      <point x="523" y="324" type="line"/>
      <point x="555" y="555" type="line" smooth="yes"/>
      <point x="556" y="564"/>
      <point x="561" y="569"/>
      <point x="568" y="569" type="curve" smooth="yes"/>
      <point x="659" y="569" type="line" smooth="yes"/>
      <point x="753" y="569"/>
      <point x="789" y="534"/>
      <point x="776" y="443" type="curve"/>
      <point x="805" y="443" type="line"/>
      <point x="827" y="597" type="line"/>
      <point x="510" y="597" type="line" smooth="yes"/>
      <point x="465" y="597"/>
      <point x="438" y="607"/>
      <point x="387" y="607" type="curve" smooth="yes"/>
    </contour>
    <contour>
      <point x="429" y="581"/>
      <point x="467" y="557"/>
      <point x="463" y="526" type="curve" smooth="yes"/>
      <point x="402" y="90" type="line" smooth="yes"/>
      <point x="397" y="56"/>
      <point x="374" y="18"/>
      <point x="298" y="18" type="curve" smooth="yes"/>
      <point x="192" y="18"/>
      <point x="144" y="77"/>
      <point x="144" y="212" type="curve" smooth="yes"/>
      <point x="144" y="292"/>
      <point x="150" y="363"/>
      <point x="172" y="422" type="curve" smooth="yes"/>
      <point x="202" y="520"/>
      <point x="264" y="581"/>
      <point x="377" y="581" type="curve" smooth="yes"/>
    </contour>
    <contour>
      <point x="474" y="598" type="move" name="top"/>
    </contour>
  </outline>
</glyph>
<glyph name="florin" format="1">
  <advance width="405"/>
  <unicode hex="0192"/>
  <outline>
    <contour>
      <point x="244" y="607"/>
      <point x="185" y="508"/>
      <point x="168" y="434" type="curve" smooth="yes"/>
      <point x="112" y="184" type="line" smooth="yes"/>
      <point x="69" y="-7"/>
      <point x="50" y="-161"/>
      <point x="-25" y="-161" type="curve" smooth="yes"/>
      <point x="-47" y="-161"/>
      <point x="-57" y="-150"/>
      <point x="-57" y="-136" type="curve" smooth="yes"/>
      <point x="-57" y="-125"/>
      <point x="-51" y="-117"/>
      <point x="-51" y="-105" type="curve" smooth="yes"/>
      <point x="-51" y="-84"/>
      <point x="-70" y="-77"/>
      <point x="-88" y="-77" type="curve" smooth="yes"/>
      <point x="-120" y="-77"/>
      <point x="-133" y="-100"/>
      <point x="-133" y="-121" type="curve" smooth="yes"/>
      <point x="-133" y="-162"/>
      <point x="-86" y="-188"/>
      <point x="-35" y="-188" type="curve" smooth="yes"/>
      <point x="98" y="-188"/>
      <point x="162" y="-5"/>
      <point x="182" y="87" type="curve"/>
      <point x="246" y="395" type="line" smooth="yes"/>
      <point x="275" y="534"/>
      <point x="305" y="580"/>
      <point x="351" y="580" type="curve" smooth="yes"/>
      <point x="376" y="580"/>
      <point x="386" y="564"/>
      <point x="386" y="549" type="curve" smooth="yes"/>
      <point x="386" y="534"/>
      <point x="377" y="528"/>
      <point x="377" y="513" type="curve" smooth="yes"/>
      <point x="377" y="492"/>
      <point x="395" y="485"/>
      <point x="413" y="485" type="curve" smooth="yes"/>
      <point x="448" y="485"/>
      <point x="460" y="511"/>
      <point x="460" y="534" type="curve" smooth="yes"/>
      <point x="460" y="581"/>
      <point x="409" y="607"/>
      <point x="352" y="607" type="curve" smooth="yes"/>
    </contour>
    <contour>
      <point x="75" y="364" type="line"/>
      <point x="48" y="333" type="line"/>
      <point x="310" y="333" type="line"/>
      <point x="339" y="349" type="line"/>
      <point x="339" y="364" type="line"/>
    </contour>
  </outline>
</glyph>
<glyph name="dotaccent" format="1">
  <advance width="168"/>
  <unicode hex="02D9"/>
  <outline>
    <contour>
      <point x="110" y="643"/>
      <point x="82" y="622"/>
      <point x="82" y="589" type="curve" smooth="yes"/>
      <point x="82" y="563"/>
      <point x="102" y="548"/>
      <point x="130" y="548" type="curve" smooth="yes"/>
      <point x="166" y="548"/>
      <point x="191" y="568"/>
      <point x="191" y="602" type="curve" smooth="yes"/>
      <point x="191" y="627"/>
      <point x="173" y="643"/>
      <point x="144" y="643" type="curve" smooth="yes"/>
    </contour>
    <contour>
      <point x="116" y="420" type="move" name="_top"/>
    </contour>
  </outline>
</glyph>
<glyph name="ring" format="1">
  <advance width="229"/>
  <unicode hex="02DA"/>
  <outline>
    <contour>
      <point x="84" y="521"/>
      <point x="109" y="493"/>
      <point x="153" y="493" type="curve" smooth="yes"/>
      <point x="207" y="493"/>
      <point x="247" y="531"/>
      <point x="247" y="585" type="curve" smooth="yes"/>
      <point x="247" y="629"/>
      <point x="221" y="656"/>
      <point x="176" y="656" type="curve" smooth="yes"/>
      <point x="127" y="656"/>
      <point x="84" y="617"/>
      <point x="84" y="565" type="curve" smooth="yes"/>
    </contour>
    <contour>
      <point x="129" y="596"/>
      <point x="146" y="620"/>
      <point x="171" y="620" type="curve" smooth="yes"/>
      <point x="192" y="620"/>
      <point x="201" y="603"/>
      <point x="201" y="581" type="curve" smooth="yes"/>
      <point x="201" y="554"/>
      <point x="183" y="529"/>
      <point x="158" y="529" type="curve" smooth="yes"/>
      <point x="138" y="529"/>
      <point x="129" y="546"/>
      <point x="129" y="569" type="curve" smooth="yes"/>
    </contour>
    <contour>
      <point x="144" y="420" type="move" name="_top"/>
    </contour>
  </outline>
</glyph>
<glyph name="Omega" format="1">
  <advance width="650"/>
  <unicode hex="03A9"/>
  <outline>
    <contour>
      <point x="192" y="607"/>
      <point x="75" y="473"/>
      <point x="75" y="305" type="curve" smooth="yes"/>
      <point x="75" y="187"/>
      <point x="131" y="122"/>
      <point x="196" y="35" type="curve"/>
      <point x="200" y="56" type="line"/>
      <point x="126" y="56" type="line" smooth="yes"/>
      <point x="70" y="56"/>
      <point x="49" y="79"/>
      <point x="50" y="140" type="curve"/>
      <point x="17" y="140" type="line"/>
      <point x="19" y="95"/>
      <point x="21" y="21"/>
      <point x="17" y="-4" type="curve"/>
      <point x="30" y="0"/>
      <point x="68" y="0"/>
      <point x="119" y="0" type="curve" smooth="yes"/>
      <point x="237" y="0" type="line"/>
      <point x="239" y="5" type="line"/>
      <point x="200" y="69"/>
      <point x="167" y="145"/>
      <point x="167" y="267" type="curve" smooth="yes"/>
      <point x="167" y="482"/>
      <point x="227" y="580"/>
      <point x="377" y="580" type="curve" smooth="yes"/>
      <point x="473" y="580"/>
      <point x="521" y="531"/>
      <point x="521" y="413" type="curve" smooth="yes"/>
      <point x="521" y="207"/>
      <point x="446" y="109"/>
      <point x="354" y="5" type="curve"/>
      <point x="356" y="0" type="line"/>
      <point x="474" y="0" type="line" smooth="yes"/>
      <point x="525" y="0"/>
      <point x="562" y="0"/>
      <point x="574" y="-4" type="curve"/>
      <point x="578" y="21"/>
      <point x="599" y="95"/>
      <point x="613" y="140" type="curve"/>
      <point x="580" y="140" type="line"/>
      <point x="565" y="79"/>
      <point x="537" y="56"/>
      <point x="481" y="56" type="curve" smooth="yes"/>
      <point x="406" y="56" type="line"/>
      <point x="405" y="36" type="line"/>
      <point x="527" y="154"/>
      <point x="614" y="218"/>
      <point x="614" y="385" type="curve" smooth="yes"/>
      <point x="614" y="510"/>
      <point x="534" y="607"/>
      <point x="381" y="607" type="curve" smooth="yes"/>
    </contour>
  </outline>
</glyph>
<glyph name="pi" format="1">
  <advance width="589"/>
  <unicode hex="03C0"/>
  <outline>
    <contour>
      <point x="223" y="372" type="line"/>
      <point x="209" y="316"/>
      <point x="180" y="222"/>
      <point x="160" y="153" type="curve" smooth="yes"/>
      <point x="150" y="119"/>
      <point x="130" y="73"/>
      <point x="100" y="73" type="curve" smooth="yes"/>
      <point x="83" y="73"/>
      <point x="73" y="84"/>
      <point x="53" y="84" type="curve" smooth="yes"/>
      <point x="27" y="84"/>
      <point x="8" y="61"/>
      <point x="8" y="30" type="curve" smooth="yes"/>
      <point x="8" y="0"/>
      <point x="30" y="-10"/>
      <point x="52" y="-10" type="curve" smooth="yes"/>
      <point x="132" y="-10"/>
      <point x="174" y="88"/>
      <point x="194" y="144" type="curve" smooth="yes"/>
      <point x="219" y="214"/>
      <point x="244" y="312"/>
      <point x="259" y="371" type="curve"/>
    </contour>
    <contour>
      <point x="401" y="367" type="line"/>
      <point x="383" y="291"/>
      <point x="340" y="154"/>
      <point x="340" y="79" type="curve" smooth="yes"/>
      <point x="340" y="34"/>
      <point x="356" y="-6"/>
      <point x="427" y="-6" type="curve" smooth="yes"/>
      <point x="474" y="-6"/>
      <point x="500" y="9"/>
      <point x="529" y="50" type="curve"/>
      <point x="513" y="64" type="line"/>
      <point x="495" y="41"/>
      <point x="473" y="23"/>
      <point x="453" y="23" type="curve" smooth="yes"/>
      <point x="433" y="23"/>
      <point x="426" y="45"/>
      <point x="426" y="79" type="curve" smooth="yes"/>
      <point x="426" y="137"/>
      <point x="453" y="253"/>
      <point x="474" y="368" type="curve"/>
    </contour>
    <contour>
      <point x="568" y="433"/>
      <point x="558" y="420"/>
      <point x="525" y="420" type="curve" smooth="yes"/>
      <point x="463" y="420"/>
      <point x="324" y="430"/>
      <point x="226" y="430" type="curve" smooth="yes"/>
      <point x="168" y="430"/>
      <point x="106" y="407"/>
      <point x="55" y="322" type="curve"/>
      <point x="73" y="309" type="line"/>
      <point x="108" y="352"/>
      <point x="148" y="365"/>
      <point x="203" y="365" type="curve" smooth="yes"/>
      <point x="267" y="364"/>
      <point x="431" y="355"/>
      <point x="461" y="355" type="curve" smooth="yes"/>
      <point x="548" y="355" type="line" smooth="yes"/>
      <point x="562" y="355"/>
      <point x="572" y="354"/>
      <point x="578" y="353" type="curve"/>
      <point x="581" y="372" type="line" smooth="yes"/>
      <point x="583" y="388"/>
      <point x="588" y="413"/>
      <point x="608" y="458" type="curve"/>
      <point x="583" y="463" type="line"/>
    </contour>
  </outline>
</glyph>
<glyph name="daggerdbl" format="1">
  <advance width="513"/>
  <unicode hex="2021"/>
  <outline>
    <contour>
      <point x="402" y="458"/>
      <point x="391" y="416"/>
      <point x="287" y="416" type="curve" smooth="yes"/>
      <point x="279" y="416" type="line" smooth="yes"/>
      <point x="177" y="416"/>
      <point x="171" y="458"/>
      <point x="125" y="458" type="curve" smooth="yes"/>
      <point x="81" y="458"/>
      <point x="57" y="426"/>
      <point x="57" y="393" type="curve" smooth="yes"/>
      <point x="57" y="372"/>
      <point x="65" y="358"/>
      <point x="91" y="358" type="curve" smooth="yes"/>
      <point x="119" y="358"/>
      <point x="124" y="397"/>
      <point x="158" y="397" type="curve" smooth="yes"/>
      <point x="182" y="397"/>
      <point x="202" y="390"/>
      <point x="225" y="390" type="curve" smooth="yes"/>
      <point x="240" y="390"/>
      <point x="255" y="392"/>
      <point x="275" y="402" type="curve"/>
      <point x="287" y="402" type="line"/>
      <point x="305" y="392"/>
      <point x="320" y="390"/>
      <point x="335" y="390" type="curve" smooth="yes"/>
      <point x="358" y="390"/>
      <point x="380" y="397"/>
      <point x="404" y="397" type="curve" smooth="yes"/>
      <point x="439" y="397"/>
      <point x="430" y="358"/>
      <point x="459" y="358" type="curve" smooth="yes"/>
      <point x="497" y="358"/>
      <point x="506" y="394"/>
      <point x="506" y="412" type="curve" smooth="yes"/>
      <point x="506" y="440"/>
      <point x="484" y="458"/>
      <point x="453" y="458" type="curve" smooth="yes"/>
    </contour>
    <contour>
      <point x="222" y="88" type="line"/>
      <point x="204" y="51"/>
      <point x="195" y="27"/>
      <point x="195" y="2" type="curve" smooth="yes"/>
      <point x="195" y="-20"/>
      <point x="198" y="-35"/>
      <point x="198" y="-50" type="curve" smooth="yes"/>
      <point x="198" y="-85"/>
      <point x="159" y="-82"/>
      <point x="159" y="-118" type="curve" smooth="yes"/>
      <point x="159" y="-137"/>
      <point x="176" y="-152"/>
      <point x="202" y="-152" type="curve" smooth="yes"/>
      <point x="236" y="-152"/>
      <point x="255" y="-131"/>
      <point x="255" y="-113" type="curve" smooth="yes"/>
      <point x="255" y="-83"/>
      <point x="235" y="-83"/>
      <point x="235" y="-60" type="curve" smooth="yes"/>
      <point x="235" y="-37"/>
      <point x="256" y="-11"/>
      <point x="256" y="32" type="curve" smooth="yes"/>
      <point x="256" y="48"/>
      <point x="254" y="65"/>
      <point x="250" y="88" type="curve"/>
    </contour>
    <contour>
      <point x="398" y="130"/>
      <point x="393" y="91"/>
      <point x="359" y="91" type="curve" smooth="yes"/>
      <point x="335" y="91"/>
      <point x="315" y="98"/>
      <point x="292" y="98" type="curve" smooth="yes"/>
      <point x="277" y="98"/>
      <point x="262" y="96"/>
      <point x="242" y="86" type="curve"/>
      <point x="230" y="86" type="line"/>
      <point x="212" y="96"/>
      <point x="197" y="98"/>
      <point x="182" y="98" type="curve" smooth="yes"/>
      <point x="159" y="98"/>
      <point x="137" y="91"/>
      <point x="113" y="91" type="curve" smooth="yes"/>
      <point x="78" y="91"/>
      <point x="87" y="130"/>
      <point x="58" y="130" type="curve" smooth="yes"/>
      <point x="20" y="130"/>
      <point x="11" y="96"/>
      <point x="11" y="74" type="curve" smooth="yes"/>
      <point x="11" y="48"/>
      <point x="34" y="30"/>
      <point x="64" y="30" type="curve" smooth="yes"/>
      <point x="115" y="30"/>
      <point x="126" y="72"/>
      <point x="230" y="72" type="curve"/>
      <point x="238" y="72" type="line"/>
      <point x="340" y="72"/>
      <point x="346" y="30"/>
      <point x="392" y="30" type="curve" smooth="yes"/>
      <point x="436" y="30"/>
      <point x="460" y="62"/>
      <point x="460" y="95" type="curve" smooth="yes"/>
      <point x="460" y="116"/>
      <point x="452" y="130"/>
      <point x="426" y="130" type="curve" smooth="yes"/>
    </contour>
    <contour>
      <point x="227" y="244" type="line"/>
      <point x="204" y="210"/>
      <point x="200" y="199"/>
      <point x="200" y="186" type="curve" smooth="yes"/>
      <point x="200" y="161"/>
      <point x="223" y="153"/>
      <point x="223" y="108" type="curve" smooth="yes"/>
      <point x="223" y="102"/>
      <point x="223" y="95"/>
      <point x="222" y="88" type="curve"/>
      <point x="250" y="88" type="line"/>
      <point x="265" y="167"/>
      <point x="301" y="145"/>
      <point x="301" y="200" type="curve" smooth="yes"/>
      <point x="301" y="213"/>
      <point x="297" y="225"/>
      <point x="290" y="244" type="curve"/>
    </contour>
    <contour>
      <point x="267" y="400" type="line"/>
      <point x="252" y="321"/>
      <point x="216" y="343"/>
      <point x="216" y="288" type="curve" smooth="yes"/>
      <point x="216" y="275"/>
      <point x="220" y="263"/>
      <point x="227" y="244" type="curve"/>
      <point x="290" y="244" type="line"/>
      <point x="313" y="278"/>
      <point x="317" y="289"/>
      <point x="317" y="302" type="curve" smooth="yes"/>
      <point x="317" y="327"/>
      <point x="294" y="335"/>
      <point x="294" y="380" type="curve" smooth="yes"/>
      <point x="294" y="386"/>
      <point x="294" y="393"/>
      <point x="295" y="400" type="curve"/>
    </contour>
    <contour>
      <point x="281" y="640"/>
      <point x="262" y="619"/>
      <point x="262" y="601" type="curve" smooth="yes"/>
      <point x="262" y="571"/>
      <point x="282" y="571"/>
      <point x="282" y="548" type="curve" smooth="yes"/>
      <point x="282" y="525"/>
      <point x="261" y="499"/>
      <point x="261" y="456" type="curve" smooth="yes"/>
      <point x="261" y="440"/>
      <point x="263" y="423"/>
      <point x="267" y="400" type="curve"/>
      <point x="295" y="400" type="line"/>
      <point x="313" y="437"/>
      <point x="322" y="461"/>
      <point x="322" y="486" type="curve" smooth="yes"/>
      <point x="322" y="508"/>
      <point x="319" y="523"/>
      <point x="319" y="538" type="curve" smooth="yes"/>
      <point x="319" y="573"/>
      <point x="358" y="570"/>
      <point x="358" y="606" type="curve" smooth="yes"/>
      <point x="358" y="625"/>
      <point x="341" y="640"/>
      <point x="315" y="640" type="curve" smooth="yes"/>
    </contour>
  </outline>
</glyph>
<glyph name="bullet" format="1">
  <advance width="452"/>
  <unicode hex="2022"/>
  <outline>
    <contour>
      <point x="104" y="173"/>
      <point x="147" y="131"/>
      <point x="214" y="131" type="curve" smooth="yes"/>
      <point x="289" y="131"/>
      <point x="355" y="185"/>
      <point x="355" y="261" type="curve" smooth="yes"/>
      <point x="355" y="322"/>
      <point x="310" y="363"/>
      <point x="247" y="363" type="curve" smooth="yes"/>
      <point x="171" y="363"/>
      <point x="104" y="309"/>
      <point x="104" y="232" type="curve" smooth="yes"/>
    </contour>
  </outline>
</glyph>
<glyph name="estimated" format="1">
  <advance width="678"/>
  <unicode hex="212E"/>
  <outline>
    <contour>
      <point x="167" y="607"/>
      <point x="55" y="495"/>
      <point x="55" y="299" type="curve" smooth="yes"/>
      <point x="55" y="106"/>
      <point x="165" y="-11"/>
      <point x="359" y="-11" type="curve" smooth="yes"/>
      <point x="478" y="-11"/>
      <point x="571" y="37"/>
      <point x="619" y="120" type="curve"/>
      <point x="594" y="135" type="line"/>
      <point x="551" y="60"/>
      <point x="469" y="17"/>
      <point x="359" y="17" type="curve" smooth="yes"/>
      <point x="272" y="17"/>
      <point x="205" y="42"/>
      <point x="158" y="88" type="curve"/>
      <point x="158" y="299" type="line"/>
      <point x="654" y="299" type="line"/>
      <point x="654" y="489"/>
      <point x="548" y="607"/>
      <point x="355" y="607" type="curve" smooth="yes"/>
    </contour>
    <contour>
      <point x="438" y="579"/>
      <point x="504" y="554"/>
      <point x="551" y="509" type="curve"/>
      <point x="551" y="327" type="line"/>
      <point x="158" y="327" type="line"/>
      <point x="158" y="511" type="line"/>
      <point x="204" y="554"/>
      <point x="270" y="579"/>
      <point x="355" y="579" type="curve" smooth="yes"/>
    </contour>
  </outline>
</glyph>
<glyph name="summation" format="1">
  <advance width="498"/>
  <unicode hex="2211"/>
  <outline>
    <contour>
      <point x="263" y="308" type="line"/>
      <point x="-1" y="-55" type="line"/>
      <point x="69" y="-23" type="line"/>
      <point x="310" y="308" type="line"/>
    </contour>
    <contour>
      <point x="409" y="70" type="line"/>
      <point x="393" y="9"/>
      <point x="366" y="-14"/>
      <point x="310" y="-14" type="curve" smooth="yes"/>
      <point x="64" y="-14" type="line"/>
      <point x="-1" y="-55" type="line"/>
      <point x="-4" y="-79" type="line"/>
      <point x="303" y="-79" type="line" smooth="yes"/>
      <point x="353" y="-79"/>
      <point x="389" y="-79"/>
      <point x="401" y="-83" type="curve"/>
      <point x="405" y="-58"/>
      <point x="428" y="25"/>
      <point x="442" y="70" type="curve"/>
    </contour>
    <contour>
      <point x="98" y="573" type="line"/>
      <point x="231" y="247" type="line"/>
      <point x="310" y="308" type="line"/>
      <point x="203" y="579" type="line"/>
    </contour>
    <contour>
      <point x="487" y="597"/>
      <point x="450" y="597"/>
      <point x="399" y="597" type="curve" smooth="yes"/>
      <point x="102" y="597" type="line"/>
      <point x="98" y="573" type="line"/>
      <point x="196" y="569" type="line"/>
      <point x="385" y="569" type="line" smooth="yes"/>
      <point x="441" y="569"/>
      <point x="461" y="543"/>
      <point x="458" y="468" type="curve"/>
      <point x="491" y="468" type="line"/>
      <point x="492" y="507"/>
      <point x="497" y="580"/>
      <point x="500" y="601" type="curve"/>
    </contour>
  </outline>
</glyph>
<glyph name="radical" format="1">
  <advance width="460"/>
  <unicode hex="221A"/>
  <outline>
    <contour>
      <point x="274" y="11" type="line"/>
      <point x="195" y="357" type="line"/>
      <point x="107" y="349" type="line"/>
      <point x="220" y="-95" type="line"/>
    </contour>
    <contour>
      <point x="32" y="306" type="line"/>
      <point x="195" y="357" type="line"/>
      <point x="189" y="382" type="line"/>
      <point x="27" y="331" type="line"/>
    </contour>
    <contour>
      <point x="220" y="-95" type="line"/>
      <point x="247" y="-95" type="line"/>
      <point x="563" y="786" type="line"/>
      <point x="537" y="786" type="line"/>
    </contour>
  </outline>
</glyph>
<glyph name="infinity" format="1">
  <advance width="520"/>
  <unicode hex="221E"/>
  <outline>
    <contour>
      <point x="248" y="420"/>
      <point x="240" y="178"/>
      <point x="105" y="178" type="curve" smooth="yes"/>
      <point x="61" y="178"/>
      <point x="34" y="208"/>
      <point x="34" y="252" type="curve" smooth="yes"/>
      <point x="34" y="315"/>
      <point x="74" y="348"/>
      <point x="141" y="348" type="curve" smooth="yes"/>
      <point x="191" y="348"/>
      <point x="227" y="327"/>
      <point x="247" y="284" type="curve"/>
      <point x="265" y="312" type="line"/>
      <point x="253" y="365"/>
      <point x="212" y="420"/>
      <point x="147" y="420" type="curve" smooth="yes"/>
      <point x="44" y="420"/>
      <point x="6" y="320"/>
      <point x="6" y="250" type="curve" smooth="yes"/>
      <point x="6" y="171"/>
      <point x="44" y="109"/>
      <point x="121" y="109" type="curve" smooth="yes"/>
      <point x="284" y="109"/>
      <point x="301" y="351"/>
      <point x="430" y="351" type="curve" smooth="yes"/>
      <point x="473" y="351"/>
      <point x="500" y="320"/>
      <point x="500" y="276" type="curve" smooth="yes"/>
      <point x="500" y="235"/>
      <point x="483" y="181"/>
      <point x="394" y="181" type="curve" smooth="yes"/>
      <point x="344" y="181"/>
      <point x="308" y="202"/>
      <point x="288" y="245" type="curve"/>
      <point x="270" y="217" type="line"/>
      <point x="282" y="164"/>
      <point x="323" y="109"/>
      <point x="388" y="109" type="curve" smooth="yes"/>
      <point x="500" y="109"/>
      <point x="528" y="222"/>
      <point x="528" y="286" type="curve" smooth="yes"/>
      <point x="528" y="362"/>
      <point x="490" y="420"/>
      <point x="414" y="420" type="curve" smooth="yes"/>
    </contour>
  </outline>
</glyph>
<glyph name="breve.case" format="1">
  <advance width="319"/>
  <outline>
    <component base="breve" xOffset="21" yOffset="148"/>
    <contour>
      <point x="215" y="598" type="move" name="_top"/>
    </contour>
  </outline>
</glyph>
<glyph name="circumflex.narrow" format="1">
  <advance width="326"/>
  <outline>
    <contour>
      <point x="223" y="659"/>
      <point x="215" y="653"/>
      <point x="208" y="644" type="curve"/>
      <point x="92" y="521" type="line" smooth="yes"/>
      <point x="81" y="509"/>
      <point x="74" y="501"/>
      <point x="74" y="499" type="curve" smooth="yes"/>
      <point x="74" y="496"/>
      <point x="79" y="493"/>
      <point x="83" y="493" type="curve" smooth="yes"/>
      <point x="92" y="493"/>
      <point x="105" y="499"/>
      <point x="114" y="506" type="curve" smooth="yes"/>
      <point x="215" y="583" type="line"/>
      <point x="294" y="506" type="line" smooth="yes"/>
      <point x="301" y="499"/>
      <point x="312" y="493"/>
      <point x="321" y="493" type="curve" smooth="yes"/>
      <point x="326" y="493"/>
      <point x="332" y="496"/>
      <point x="332" y="500" type="curve" smooth="yes"/>
      <point x="332" y="501"/>
      <point x="327" y="509"/>
      <point x="319" y="521" type="curve" smooth="yes"/>
      <point x="240" y="644" type="line"/>
      <point x="235" y="653"/>
      <point x="229" y="659"/>
      <point x="226" y="659" type="curve" smooth="yes"/>
    </contour>
    <contour>
      <point x="195" y="420" type="move" name="_top"/>
    </contour>
  </outline>
</glyph>
<glyph name="f.ss03" format="1">
  <advance width="284"/>
  <outline>
    <contour>
      <point x="226" y="700"/>
      <point x="148" y="581"/>
      <point x="122" y="420" type="curve" smooth="yes"/>
      <point x="105" y="276"/>
      <point x="71" y="-20"/>
      <point x="37" y="-239" type="curve"/>
      <point x="119" y="-209" type="line"/>
      <point x="206" y="454" type="line" smooth="yes"/>
      <point x="229" y="628"/>
      <point x="298" y="673"/>
      <point x="363" y="673" type="curve" smooth="yes"/>
      <point x="407" y="673"/>
      <point x="417" y="664"/>
      <point x="417" y="652" type="curve" smooth="yes"/>
      <point x="417" y="617"/>
      <point x="423" y="609"/>
      <point x="473" y="609" type="curve"/>
      <point x="473" y="660"/>
      <point x="438" y="700"/>
      <point x="368" y="700" type="curve" smooth="yes"/>
    </contour>
    <contour>
      <point x="56" y="420" type="line"/>
      <point x="29" y="389" type="line"/>
      <point x="131" y="389" type="line"/>
      <point x="139" y="420" type="line"/>
    </contour>
    <contour>
      <point x="201" y="420" type="line"/>
      <point x="195" y="389" type="line"/>
      <point x="281" y="389" type="line"/>
      <point x="310" y="405" type="line"/>
      <point x="310" y="420" type="line"/>
    </contour>
  </outline>
</glyph>
<glyph name="f.ss04" format="1">
  <advance width="284"/>
  <outline>
    <contour>
      <point x="210" y="730"/>
      <point x="144" y="599"/>
      <point x="122" y="420" type="curve" smooth="yes"/>
      <point x="105" y="276"/>
      <point x="71" y="-20"/>
      <point x="37" y="-239" type="curve"/>
      <point x="119" y="-209" type="line"/>
      <point x="206" y="454" type="line" smooth="yes"/>
      <point x="232" y="650"/>
      <point x="270" y="703"/>
      <point x="319" y="703" type="curve" smooth="yes"/>
      <point x="351" y="703"/>
      <point x="359" y="682"/>
      <point x="359" y="663" type="curve" smooth="yes"/>
      <point x="359" y="643"/>
      <point x="350" y="634"/>
      <point x="350" y="617" type="curve" smooth="yes"/>
      <point x="350" y="594"/>
      <point x="368" y="588"/>
      <point x="386" y="588" type="curve" smooth="yes"/>
      <point x="421" y="588"/>
      <point x="433" y="613"/>
      <point x="433" y="639" type="curve" smooth="yes"/>
      <point x="433" y="690"/>
      <point x="389" y="730"/>
      <point x="324" y="730" type="curve" smooth="yes"/>
    </contour>
    <contour>
      <point x="56" y="420" type="line"/>
      <point x="29" y="389" type="line"/>
      <point x="131" y="389" type="line"/>
      <point x="139" y="420" type="line"/>
    </contour>
    <contour>
      <point x="201" y="420" type="line"/>
      <point x="195" y="389" type="line"/>
      <point x="281" y="389" type="line"/>
      <point x="310" y="405" type="line"/>
      <point x="310" y="420" type="line"/>
    </contour>
  </outline>
</glyph>
<glyph name="f.ss05" format="1">
  <advance width="284"/>
  <outline>
    <contour>
      <point x="194" y="730"/>
      <point x="140" y="607"/>
      <point x="122" y="443" type="curve" smooth="yes"/>
      <point x="105" y="295"/>
      <point x="71" y="-14"/>
      <point x="37" y="-239" type="curve"/>
      <point x="122" y="-209" type="line"/>
      <point x="206" y="477" type="line" smooth="yes"/>
      <point x="217" y="569"/>
      <point x="228" y="627"/>
      <point x="240" y="661" type="curve" smooth="yes"/>
      <point x="251" y="692"/>
      <point x="263" y="703"/>
      <point x="278" y="703" type="curve" smooth="yes"/>
      <point x="304" y="703"/>
      <point x="310" y="687"/>
      <point x="310" y="673" type="curve" smooth="yes"/>
      <point x="310" y="657"/>
      <point x="301" y="650"/>
      <point x="301" y="637" type="curve" smooth="yes"/>
      <point x="301" y="614"/>
      <point x="319" y="608"/>
      <point x="337" y="608" type="curve" smooth="yes"/>
      <point x="372" y="608"/>
      <point x="384" y="628"/>
      <point x="384" y="649" type="curve" smooth="yes"/>
      <point x="384" y="694"/>
      <point x="344" y="730"/>
      <point x="283" y="730" type="curve" smooth="yes"/>
    </contour>
    <contour>
      <point x="56" y="420" type="line"/>
      <point x="29" y="389" type="line"/>
      <point x="131" y="389" type="line"/>
      <point x="139" y="420" type="line"/>
    </contour>
    <contour>
      <point x="191" y="420" type="line"/>
      <point x="185" y="389" type="line"/>
      <point x="281" y="389" type="line"/>
      <point x="310" y="405" type="line"/>
      <point x="310" y="420" type="line"/>
    </contour>
  </outline>
</glyph>
<glyph name="f.ss06" format="1">
  <advance width="284"/>
  <outline>
    <contour>
      <point x="214" y="710"/>
      <point x="141" y="589"/>
      <point x="121" y="440" type="curve" smooth="yes"/>
      <point x="80" y="72" type="line" smooth="yes"/>
      <point x="58" y="-123"/>
      <point x="34" y="-218"/>
      <point x="-29" y="-218" type="curve" smooth="yes"/>
      <point x="-48" y="-218"/>
      <point x="-60" y="-209"/>
      <point x="-60" y="-193" type="curve" smooth="yes"/>
      <point x="-60" y="-182"/>
      <point x="-54" y="-174"/>
      <point x="-54" y="-162" type="curve" smooth="yes"/>
      <point x="-54" y="-141"/>
      <point x="-73" y="-134"/>
      <point x="-91" y="-134" type="curve" smooth="yes"/>
      <point x="-123" y="-134"/>
      <point x="-136" y="-157"/>
      <point x="-136" y="-178" type="curve" smooth="yes"/>
      <point x="-136" y="-219"/>
      <point x="-89" y="-245"/>
      <point x="-37" y="-245" type="curve" smooth="yes"/>
      <point x="90" y="-245"/>
      <point x="148" y="-94"/>
      <point x="170" y="102" type="curve" smooth="yes"/>
      <point x="209" y="454" type="line" smooth="yes"/>
      <point x="235" y="636"/>
      <point x="282" y="683"/>
      <point x="339" y="683" type="curve" smooth="yes"/>
      <point x="387" y="683"/>
      <point x="399" y="662"/>
      <point x="399" y="643" type="curve" smooth="yes"/>
      <point x="399" y="623"/>
      <point x="390" y="614"/>
      <point x="390" y="597" type="curve" smooth="yes"/>
      <point x="390" y="574"/>
      <point x="408" y="568"/>
      <point x="426" y="568" type="curve" smooth="yes"/>
      <point x="461" y="568"/>
      <point x="473" y="593"/>
      <point x="473" y="619" type="curve" smooth="yes"/>
      <point x="473" y="670"/>
      <point x="421" y="710"/>
      <point x="344" y="710" type="curve" smooth="yes"/>
    </contour>
    <contour>
      <point x="56" y="420" type="line"/>
      <point x="29" y="389" type="line"/>
      <point x="131" y="389" type="line"/>
      <point x="139" y="420" type="line"/>
    </contour>
    <contour>
      <point x="203" y="420" type="line"/>
      <point x="197" y="389" type="line"/>
      <point x="341" y="389" type="line"/>
      <point x="370" y="405" type="line"/>
      <point x="370" y="420" type="line"/>
    </contour>
  </outline>
</glyph>
<glyph name="f.ss07" format="1">
  <advance width="284"/>
  <outline>
    <contour>
      <point x="233" y="710"/>
      <point x="143" y="597"/>
      <point x="125" y="440" type="curve" smooth="yes"/>
      <point x="106" y="266"/>
      <point x="85" y="89"/>
      <point x="60" y="-86" type="curve"/>
      <point x="140" y="-56" type="line"/>
      <point x="209" y="454" type="line" smooth="yes"/>
      <point x="234" y="637"/>
      <point x="282" y="683"/>
      <point x="339" y="683" type="curve" smooth="yes"/>
      <point x="387" y="683"/>
      <point x="399" y="662"/>
      <point x="399" y="643" type="curve" smooth="yes"/>
      <point x="399" y="623"/>
      <point x="390" y="614"/>
      <point x="390" y="597" type="curve" smooth="yes"/>
      <point x="390" y="574"/>
      <point x="408" y="568"/>
      <point x="426" y="568" type="curve" smooth="yes"/>
      <point x="461" y="568"/>
      <point x="473" y="593"/>
      <point x="473" y="619" type="curve" smooth="yes"/>
      <point x="473" y="670"/>
      <point x="421" y="710"/>
      <point x="344" y="710" type="curve" smooth="yes"/>
    </contour>
    <contour>
      <point x="56" y="420" type="line"/>
      <point x="29" y="389" type="line"/>
      <point x="131" y="389" type="line"/>
      <point x="139" y="420" type="line"/>
    </contour>
    <contour>
      <point x="203" y="420" type="line"/>
      <point x="197" y="389" type="line"/>
      <point x="341" y="389" type="line"/>
      <point x="370" y="405" type="line"/>
      <point x="370" y="420" type="line"/>
    </contour>
  </outline>
</glyph>
<glyph name="j.ss01" format="1">
  <advance width="242"/>
  <outline>
    <contour>
      <point x="128" y="426"/>
      <point x="87" y="416"/>
      <point x="48" y="400" type="curve"/>
      <point x="53" y="371" type="line"/>
      <point x="57" y="372"/>
      <point x="63" y="373"/>
      <point x="70" y="373" type="curve" smooth="yes"/>
      <point x="83" y="373"/>
      <point x="100" y="369"/>
      <point x="100" y="342" type="curve" smooth="yes"/>
      <point x="100" y="327"/>
      <point x="95" y="284"/>
      <point x="87" y="225" type="curve" smooth="yes"/>
      <point x="66" y="72" type="line" smooth="yes"/>
      <point x="36" y="-118"/>
      <point x="33" y="-213"/>
      <point x="-40" y="-213" type="curve" smooth="yes"/>
      <point x="-81" y="-213"/>
      <point x="-105" y="-201"/>
      <point x="-122" y="-185" type="curve"/>
      <point x="-145" y="-210" type="line"/>
      <point x="-115" y="-230"/>
      <point x="-84" y="-245"/>
      <point x="-47" y="-245" type="curve" smooth="yes"/>
      <point x="74" y="-245"/>
      <point x="112" y="-148"/>
      <point x="134" y="11" type="curve" smooth="yes"/>
      <point x="145" y="95"/>
      <point x="193" y="406"/>
      <point x="193" y="403" type="curve" smooth="yes"/>
      <point x="193" y="423"/>
      <point x="180" y="426"/>
      <point x="162" y="426" type="curve" smooth="yes"/>
    </contour>
    <contour>
      <point x="143" y="643"/>
      <point x="117" y="622"/>
      <point x="117" y="589" type="curve" smooth="yes"/>
      <point x="117" y="563"/>
      <point x="135" y="548"/>
      <point x="164" y="548" type="curve" smooth="yes"/>
      <point x="198" y="548"/>
      <point x="227" y="568"/>
      <point x="227" y="602" type="curve" smooth="yes"/>
      <point x="227" y="627"/>
      <point x="206" y="643"/>
      <point x="178" y="643" type="curve" smooth="yes"/>
    </contour>
  </outline>
</glyph>
